<?xml version="1.0" encoding="UTF-8" standalone="no"?>
<!-- Created with Inkscape (http://www.inkscape.org/) -->

<svg
   xmlns:dc="http://purl.org/dc/elements/1.1/"
   xmlns:cc="http://creativecommons.org/ns#"
   xmlns:rdf="http://www.w3.org/1999/02/22-rdf-syntax-ns#"
   xmlns:svg="http://www.w3.org/2000/svg"
   xmlns="http://www.w3.org/2000/svg"
   xmlns:xlink="http://www.w3.org/1999/xlink"
   xmlns:sodipodi="http://sodipodi.sourceforge.net/DTD/sodipodi-0.dtd"
   xmlns:inkscape="http://www.inkscape.org/namespaces/inkscape"
   width="1024.0564"
   height="374.49393"
   id="svg2"
   version="1.1"
   inkscape:version="0.48.5 r10040"
   sodipodi:docname="New document 1">
  <title
     id="title4274">Philippine Health Insurance Corporation (PhilHeath)</title>
  <defs
     id="defs4">
    <linearGradient
       id="linearGradient3825">
      <stop
         style="stop-color:#ffffff;stop-opacity:1;"
         offset="0"
         id="stop3827" />
      <stop
         style="stop-color:#000000;stop-opacity:0;"
         offset="1"
         id="stop3829" />
    </linearGradient>
    <linearGradient
       id="linearGradient3812">
      <stop
         style="stop-color:#ffffff;stop-opacity:1;"
         offset="0"
         id="stop3814" />
      <stop
         style="stop-color:#000000;stop-opacity:0;"
         offset="1"
         id="stop3816" />
    </linearGradient>
    <radialGradient
       inkscape:collect="always"
       xlink:href="#linearGradient3825"
       id="radialGradient3833"
       cx="179.28572"
       cy="115.34448"
       fx="179.28572"
       fy="115.34448"
       r="29.071424"
       gradientTransform="matrix(1,0,0,0.88329244,2.5,313.15784)"
       gradientUnits="userSpaceOnUse" />
    <radialGradient
       inkscape:collect="always"
       xlink:href="#linearGradient3825-4"
       id="radialGradient3833-7"
       cx="179.28572"
       cy="115.34448"
       fx="179.28572"
       fy="115.34448"
       r="29.071424"
       gradientTransform="matrix(1,0,0,0.88329244,2.5,313.15784)"
       gradientUnits="userSpaceOnUse" />
    <linearGradient
       id="linearGradient3825-4">
      <stop
         style="stop-color:#ffffff;stop-opacity:1;"
         offset="0"
         id="stop3827-0" />
      <stop
         style="stop-color:#000000;stop-opacity:0;"
         offset="1"
         id="stop3829-9" />
    </linearGradient>
    <radialGradient
       r="29.071424"
       fy="115.34448"
       fx="179.28572"
       cy="115.34448"
       cx="179.28572"
       gradientTransform="matrix(0.75918442,0,0,0.67058186,117.68939,398.57342)"
       gradientUnits="userSpaceOnUse"
       id="radialGradient3850"
       xlink:href="#linearGradient3825-4"
       inkscape:collect="always" />
    <radialGradient
       inkscape:collect="always"
       xlink:href="#linearGradient3825"
       id="radialGradient4270"
       gradientUnits="userSpaceOnUse"
       gradientTransform="matrix(1,0,0,0.88329244,2.5,313.15784)"
       cx="179.28572"
       cy="115.34448"
       fx="179.28572"
       fy="115.34448"
       r="29.071424" />
    <radialGradient
       inkscape:collect="always"
       xlink:href="#linearGradient3825-4"
       id="radialGradient4272"
       gradientUnits="userSpaceOnUse"
       gradientTransform="matrix(0.75918442,0,0,0.67058186,117.68939,398.57342)"
       cx="179.28572"
       cy="115.34448"
       fx="179.28572"
       fy="115.34448"
       r="29.071424" />
  </defs>
  <sodipodi:namedview
     id="base"
     pagecolor="#ffffff"
     bordercolor="#666666"
     borderopacity="1.0"
     inkscape:pageopacity="0.0"
     inkscape:pageshadow="2"
     inkscape:zoom="0.24748737"
     inkscape:cx="214.44449"
     inkscape:cy="125.06624"
     inkscape:document-units="px"
     inkscape:current-layer="layer1"
     showgrid="false"
     inkscape:snap-bbox="true"
     inkscape:bbox-nodes="true"
     inkscape:bbox-paths="true"
     inkscape:object-paths="true"
     inkscape:snap-intersection-paths="true"
     inkscape:object-nodes="true"
     inkscape:snap-global="false"
     fit-margin-top="0"
     fit-margin-left="0"
     fit-margin-right="0"
     fit-margin-bottom="0"
     inkscape:window-width="1366"
     inkscape:window-height="705"
     inkscape:window-x="-8"
     inkscape:window-y="-8"
     inkscape:window-maximized="1" />
  <metadata
     id="metadata7">
    <rdf:RDF>
      <cc:Work
         rdf:about="">
        <dc:format>image/svg+xml</dc:format>
        <dc:type
           rdf:resource="http://purl.org/dc/dcmitype/StillImage" />
        <dc:title>Philippine Health Insurance Corporation (PhilHeath)</dc:title>
      </cc:Work>
    </rdf:RDF>
  </metadata>
  <g
     inkscape:label="Layer 1"
     inkscape:groupmode="layer"
     id="layer1"
     transform="translate(-28.965178,-367.13497)">
    <g
       id="g4215"
       transform="matrix(1.258915,0,0,1.258915,-129.57943,-120.78951)">
      <path
         sodipodi:nodetypes="accccccccca"
         transform="translate(0,308.2677)"
         inkscape:connector-curvature="0"
         id="path2996"
         d="m 168.08122,159.5129 c -15.24028,-0.24133 -41.65265,18.8673 -41.65265,18.8673 l 1.42857,182.14285 41.42858,15.71429 37.85713,-12.14286 -0.71428,-107.85714 28.65809,22.27284 0,-23.40555 L 204.28571,234.80877 205,177.66591 c 0,0 -23.20705,-17.93589 -36.91878,-18.15301 z"
         style="fill:#fcd116;fill-opacity:1;stroke:#000000;stroke-width:1px;stroke-linecap:butt;stroke-linejoin:miter;stroke-opacity:1" />
      <path
         sodipodi:nodetypes="cc"
         transform="translate(0,308.2677)"
         inkscape:connector-curvature="0"
         id="path2998"
         d="m 235.21293,279.01526 -28.63917,-0.28541"
         style="fill:#009246;fill-opacity:1;stroke:#000000;stroke-width:1px;stroke-linecap:butt;stroke-linejoin:miter;stroke-opacity:1" />
      <path
         sodipodi:nodetypes="ccc"
         transform="translate(0,308.2677)"
         inkscape:connector-curvature="0"
         id="path3000"
         d="m 126.42857,178.3802 42.9079,5.93092 L 205,177.66591"
         style="fill:none;stroke:#000000;stroke-width:1px;stroke-linecap:butt;stroke-linejoin:miter;stroke-opacity:1" />
      <path
         sodipodi:nodetypes="cc"
         transform="translate(0,308.2677)"
         inkscape:connector-curvature="0"
         id="path3002"
         d="m 169.33647,184.31112 -0.0507,191.92622"
         style="fill:none;stroke:#000000;stroke-width:1px;stroke-linecap:butt;stroke-linejoin:miter;stroke-opacity:1" />
      <path
         sodipodi:nodetypes="ccccccccc"
         transform="translate(0,308.2677)"
         inkscape:connector-curvature="0"
         id="path3004"
         d="m 219.2031,230.93699 0.0631,-16.92005 20.13993,14.14213 -0.25254,-16.16244 29.54695,0.25254 2.02031,130.30968 -30.80965,8.5863 0.50508,-105.05587 z"
         style="fill:#009246;fill-opacity:1;stroke:#000000;stroke-width:1px;stroke-linecap:butt;stroke-linejoin:bevel;stroke-opacity:1" />
      <path
         sodipodi:nodetypes="ccccc"
         inkscape:connector-curvature="0"
         id="path3006"
         d="m 219.2662,522.28464 -14.71452,-0.4859 -0.21766,17.4129 14.86908,-0.007 z"
         style="fill:#009246;fill-opacity:1;stroke:#000000;stroke-width:0.97777104px;stroke-linecap:butt;stroke-linejoin:miter;stroke-opacity:1" />
      <path
         sodipodi:nodetypes="cc"
         transform="translate(0,308.2677)"
         inkscape:connector-curvature="0"
         id="path3008"
         d="m 240.41631,246.08928 -18.54203,0.30924"
         style="fill:none;stroke:#000000;stroke-width:1px;stroke-linecap:butt;stroke-linejoin:miter;stroke-opacity:1" />
      <path
         transform="translate(0,308.2677)"
         inkscape:connector-curvature="0"
         id="path3010"
         d="m 239.91123,351.14515 -25.80409,-8.65781 -6.3e-4,-64.23362"
         style="fill:none;stroke:#000000;stroke-width:1px;stroke-linecap:butt;stroke-linejoin:miter;stroke-opacity:1" />
      <path
         sodipodi:nodetypes="cc"
         transform="translate(0,308.2677)"
         inkscape:connector-curvature="0"
         id="path3780"
         d="m 239.15359,211.99663 -34.5774,-0.42622"
         style="fill:#009246;fill-opacity:1;stroke:#000000;stroke-width:1px;stroke-linecap:butt;stroke-linejoin:miter;stroke-opacity:1" />
      <path
         sodipodi:nodetypes="cac"
         transform="translate(0,308.2677)"
         inkscape:connector-curvature="0"
         id="path3782"
         d="m 204.60719,209.09069 c 0,0 25.37656,-4.107 38.07138,-3.1212 8.89621,0.69081 26.02197,6.27968 26.02197,6.27968"
         style="fill:none;stroke:#000000;stroke-width:1px;stroke-linecap:butt;stroke-linejoin:miter;stroke-opacity:1" />
      <path
         transform="translate(0,308.2677)"
         inkscape:connector-curvature="0"
         id="path3784"
         d="m 232.24293,205.99231 -0.10007,-5.64783 20.89285,0 0.0252,7.48375"
         style="fill:none;stroke:#000000;stroke-width:1px;stroke-linecap:butt;stroke-linejoin:miter;stroke-opacity:1" />
      <path
         sodipodi:nodetypes="cccacc"
         transform="translate(0,308.2677)"
         inkscape:connector-curvature="0"
         id="path3786"
         d="m 156.7822,161.76018 0.34991,-0.12126 c 0,0 -0.31445,-10.96832 0.0729,-10.63025 0,0 6.587,1.84881 9.97526,2.0203 4.26638,0.21594 12.75317,-1.26269 12.75317,-1.26269 l -0.0693,10.77097"
         style="fill:#fcd116;fill-opacity:1;stroke:#000000;stroke-width:1px;stroke-linecap:butt;stroke-linejoin:miter;stroke-opacity:1" />
      <path
         transform="matrix(1.4048783,0,0,1.3218871,329.58685,325.32876)"
         d="m -85.862963,75.373497 c 0,15.620972 -12.437169,28.284273 -27.779197,28.284273 -15.34202,0 -27.77919,-12.663301 -27.77919,-28.284273 0,-15.620972 12.43717,-28.284271 27.77919,-28.284271 15.342028,0 27.779197,12.663299 27.779197,28.284271 z"
         sodipodi:ry="28.284271"
         sodipodi:rx="27.779196"
         sodipodi:cy="75.373497"
         sodipodi:cx="-113.64216"
         id="path3788"
         style="fill:#000000;fill-opacity:1;stroke:none"
         sodipodi:type="arc" />
      <path
         transform="matrix(1.0512941,0,0,0.96518391,365.89991,408.80827)"
         d="m -85.862963,75.373497 c 0,15.620972 -12.437169,28.284273 -27.779197,28.284273 -15.34202,0 -27.77919,-12.663301 -27.77919,-28.284273 0,-15.620972 12.43717,-28.284271 27.77919,-28.284271 15.342028,0 27.779197,12.663299 27.779197,28.284271 z"
         sodipodi:ry="28.284271"
         sodipodi:rx="27.779196"
         sodipodi:cy="75.373497"
         sodipodi:cx="-113.64216"
         id="path3788-1"
         style="fill:#000000;fill-opacity:1;stroke:none"
         sodipodi:type="arc" />
      <path
         sodipodi:nodetypes="caccacac"
         inkscape:connector-curvature="0"
         id="path3823"
         d="m 183.21428,390.21932 c 0,0 -15.68457,-4.31011 -22.18099,-0.77052 -8.54216,4.65422 -14.96186,25.05624 -14.96186,25.05624 L 190,453.79075 c 0,0 10.30086,-6.14245 13.39915,-11.02713 3.75775,-5.92438 5.17228,-20.40144 5.17228,-20.40144 0,0 -3.89543,-14.2444 -8.36877,-19.86887 -4.34864,-5.46768 -16.98838,-12.27399 -16.98838,-12.27399 z"
         style="fill:url(#radialGradient4270);fill-opacity:1;stroke:none" />
      <path
         sodipodi:nodetypes="caccacac"
         inkscape:connector-curvature="0"
         id="path3823-4"
         d="m 254.88486,457.07729 c 0,0 -11.90748,-3.27216 -16.83947,-0.58496 -6.48507,3.53341 -11.35881,19.0223 -11.35881,19.0223 l 33.34989,29.8251 c 0,0 7.82025,-4.66325 10.17243,-8.37162 2.85282,-4.4977 3.92671,-15.48845 3.92671,-15.48845 0,0 -2.95735,-10.81413 -6.35344,-15.08415 -3.30142,-4.15097 -12.89731,-9.31822 -12.89731,-9.31822 z"
         style="fill:url(#radialGradient4272);fill-opacity:1;stroke:none" />
      <path
         transform="translate(0,308.2677)"
         inkscape:connector-curvature="0"
         id="path4131"
         d="m 251.55938,206.95498 c -2.60439,-0.59812 -5.42851,-1.11505 -7.40253,-1.35497 -2.55397,-0.3104 -6.29622,-0.37909 -10.44876,-0.19179 -0.51218,0.0231 -0.93783,0.0359 -0.9459,0.0285 -0.0117,-0.0108 -0.0841,-3.38484 -0.0936,-4.3589 l -0.002,-0.22886 9.92791,0 9.9279,0 3e-5,1.99663 c 3e-5,1.09814 0.009,2.51867 0.0209,3.15672 0.0203,1.12907 0.0192,1.16004 -0.0395,1.1579 -0.0332,-0.001 -0.4581,-0.0935 -0.94423,-0.2052 z"
         style="fill:#009246;fill-opacity:1;stroke:none" />
      <path
         transform="translate(0,308.2677)"
         inkscape:connector-curvature="0"
         id="path4133"
         d="m 250.02739,211.56394 c -6.82327,-0.0625 -19.35232,-0.20054 -27.84233,-0.30688 -8.49002,-0.10635 -15.79863,-0.19327 -16.24136,-0.19316 l -0.80497,1.9e-4 0,-0.75475 0,-0.75475 0.20519,-0.0356 c 0.59734,-0.10376 3.89895,-0.58286 5.8873,-0.85432 7.95036,-1.0854 15.16895,-1.81624 21.2132,-2.1477 3.68006,-0.20182 8.5232,-0.18753 10.66974,0.0315 3.54133,0.36131 7.66965,1.20221 13.70019,2.79061 2.88728,0.76049 8.07395,2.24061 8.17066,2.33166 0.0326,0.0307 0.14056,0.0315 -14.95762,-0.10673 z"
         style="fill:#009246;fill-opacity:1;stroke:none" />
      <path
         transform="translate(0,308.2677)"
         inkscape:connector-curvature="0"
         id="path4135"
         d="m 229.29419,220.40007 c -5.22596,-3.66951 -9.51044,-6.71472 -9.52108,-6.76715 -0.0266,-0.13096 -0.17659,-0.13841 -7.20957,-0.35815 -3.31614,-0.10361 -6.34897,-0.20584 -6.73961,-0.22717 l -0.71027,-0.0388 0,-0.43572 0,-0.43571 1.21534,-3.7e-4 c 1.44035,-4.5e-4 32.26809,0.38025 32.28655,0.39871 0.0279,0.0279 0.21897,13.25294 0.20037,13.87166 l -0.02,0.66451 -9.50175,-6.67182 z"
         style="fill:#009246;fill-opacity:1;stroke:none" />
      <path
         transform="translate(0,308.2677)"
         inkscape:connector-curvature="0"
         id="path4137"
         d="m 213.47899,240.22414 c -4.68774,-3.09189 -8.55507,-5.6405 -8.59406,-5.66359 -0.0508,-0.0301 -0.0617,-0.47643 -0.0385,-1.57299 l 0.0324,-1.53101 7.06385,0 7.06385,0 9.87151,7.05528 9.8715,7.05529 -0.32404,0.0154 c -0.46116,0.022 -15.23979,0.26944 -15.88671,0.26602 l -0.53665,-0.003 -8.52316,-5.62161 0,0 z"
         style="fill:#009246;fill-opacity:1;stroke:none" />
      <path
         transform="translate(0,308.2677)"
         inkscape:connector-curvature="0"
         id="path4143"
         d="m 223.74522,278.37676 c -4.99665,-0.0557 -10.78024,-0.11252 -12.85242,-0.12622 -2.07218,-0.0137 -3.77333,-0.0306 -3.78034,-0.0376 -0.0177,-0.0177 -0.16075,-20.84456 -0.14327,-20.86204 0.008,-0.008 2.6154,2.00733 5.79466,4.47807 3.17927,2.47074 9.30363,7.23058 13.6097,10.57741 l 7.82922,6.08516 -0.68636,-0.007 c -0.3775,-0.004 -4.77453,-0.0523 -9.77119,-0.10801 z"
         style="fill:#fcd116;fill-opacity:1;stroke:none" />
      <path
         transform="translate(0,308.2677)"
         inkscape:connector-curvature="0"
         id="path4145"
         d="m 227.02201,346.18801 -12.27679,-4.09236 0,-31.35105 0,-31.35106 10.44643,0.11025 10.44643,0.11026 -0.003,-12.44968 -0.003,-12.44967 -5.84148,-3.83929 -5.84147,-3.83928 3.21087,-0.11164 c 1.76597,-0.0614 5.33164,-0.12167 7.9237,-0.13393 l 4.71283,-0.0223 -0.13998,32.8125 c -0.077,18.04688 -0.18884,41.3371 -0.24855,51.75605 l -0.10857,18.94355 -12.27678,-4.09236 z"
         style="fill:#009246;fill-opacity:1;stroke:none" />
      <g
         id="text4147"
         style="font-size:135.84255981px;font-style:normal;font-variant:normal;font-weight:normal;font-stretch:normal;line-height:125%;letter-spacing:0px;word-spacing:0px;fill:#000000;fill-opacity:1;stroke:#000000;stroke-width:0;stroke-miterlimit:4;stroke-opacity:1;font-family:Swis721 Md BT;-inkscape-font-specification:Swis721 Md BT"
         transform="scale(0.99861127,1.0013907)">
        <path
           id="path4195"
           style="font-weight:bold;fill:#000000;stroke:#000000;font-family:Swis721 BT;-inkscape-font-specification:Swis721 BT Bold"
           d="m 315.3467,512.59548 19.43451,0 c 5.26208,5e-5 9.08707,-1.11649 11.47498,-3.34964 2.3878,-2.23303 3.58172,-5.82587 3.58179,-10.77852 -7e-5,-4.64299 -1.17188,-8.15844 -3.51546,-10.54637 -2.34369,-2.38778 -5.83704,-3.58171 -10.48004,-3.58179 l -20.49578,0 z m -0.13265,17.70994 0,34.75659 -20.09781,0 0,-97.70317 43.44575,0 c 10.25887,1e-4 18.03046,2.66433 23.31477,7.99269 5.28416,5.32855 7.92628,13.14435 7.92636,23.44744 -8e-5,10.08212 -2.58693,17.8537 -7.76054,23.31477 -5.17376,5.46116 -12.55842,8.19171 -22.15401,8.19168 z"
           inkscape:connector-curvature="0" />
        <path
           id="path4197"
           style="font-weight:bold;fill:#000000;stroke:#000000;font-family:Swis721 BT;-inkscape-font-specification:Swis721 BT Bold"
           d="m 384.59457,565.06201 0,-97.70317 19.16919,0 0,33.56267 c 2.60893,-3.27219 5.71535,-5.73742 9.31928,-7.39573 3.60385,-1.65816 7.63889,-2.48728 12.10511,-2.48735 4.24503,7e-5 8.08107,0.7297 11.50815,2.18887 3.42695,1.45932 6.20173,3.53763 8.32433,6.23496 1.45918,1.81307 2.48728,3.89138 3.08432,6.23496 0.59689,2.3437 0.89537,6.10236 0.89545,11.27599 l 0,1.32659 0,46.76221 -19.16919,0 0,-37.74141 c -6e-5,-8.93231 -0.81812,-14.53714 -2.45419,-16.8145 -1.63617,-2.27725 -4.57677,-3.4159 -8.82181,-3.41596 -4.55465,6e-5 -8.15854,1.35981 -10.81169,4.07925 -2.6532,2.71956 -3.97979,6.42295 -3.97976,11.11017 l 0,42.78245 z"
           inkscape:connector-curvature="0" />
        <path
           id="path4199"
           style="font-weight:bold;fill:#000000;stroke:#000000;font-family:Swis721 BT;-inkscape-font-specification:Swis721 BT Bold"
           d="m 466.31236,484.93613 0,-17.57729 19.30185,0 0,17.57729 z m 0,80.12588 0,-72.10003 19.30185,0 0,72.10003 z"
           inkscape:connector-curvature="0" />
        <path
           id="path4201"
           style="font-weight:bold;fill:#000000;stroke:#000000;font-family:Swis721 BT;-inkscape-font-specification:Swis721 BT Bold"
           d="m 503.45681,565.06201 0,-97.70317 19.30185,0 0,97.70317 z"
           inkscape:connector-curvature="0" />
        <path
           id="path4203"
           style="font-weight:bold;fill:#000000;stroke:#000000;font-family:Swis721 BT;-inkscape-font-specification:Swis721 BT Bold"
           d="m 541.86151,565.06201 0,-97.70317 20.23046,0 0,36.41483 40.32826,0 0,-36.41483 20.23046,0 0,97.70317 -20.23046,0 0,-43.31308 -40.32826,0 0,43.31308 z"
           inkscape:connector-curvature="0" />
        <path
           id="path4205"
           style="font-weight:bold;fill:#000000;stroke:#000000;font-family:Swis721 BT;-inkscape-font-specification:Swis721 BT Bold"
           d="m 685.72993,543.17332 19.23552,0 c -1.94573,7.60578 -5.87022,13.56436 -11.77347,17.87576 -5.90336,4.31141 -13.10009,6.46712 -21.59021,6.46712 -10.43585,0 -18.7049,-3.5044 -24.80718,-10.51321 -6.10231,-7.00879 -9.15346,-16.50493 -9.15346,-28.48846 0,-11.80658 3.00693,-21.1148 9.0208,-27.92467 6.01384,-6.80975 14.23868,-10.21465 24.67452,-10.21472 11.05485,7e-5 19.58922,3.3497 25.60314,10.0489 6.0138,6.69932 9.02073,16.23969 9.0208,28.62112 -7e-5,1.37084 -0.0111,2.39895 -0.0332,3.08432 -0.0222,0.68543 -0.0774,1.33767 -0.16582,1.95671 l -48.15513,0 c 0.2653,5.66014 1.64716,9.92732 4.14559,12.80157 2.49838,2.87429 6.09121,4.31143 10.77852,4.31141 3.31643,2e-5 6.03593,-0.65222 8.15852,-1.95671 2.12249,-1.30446 3.80283,-3.32751 5.04103,-6.06914 z m -28.12366,-21.75604 28.38898,0 c -0.17693,-4.8641 -1.47036,-8.56749 -3.88027,-11.11017 -2.41002,-2.54257 -5.87019,-3.81388 -10.38055,-3.81394 -4.20089,6e-5 -7.5063,1.28243 -9.91624,3.84711 -2.40999,2.56479 -3.81396,6.25712 -4.21192,11.077 z"
           inkscape:connector-curvature="0" />
        <path
           id="path4207"
           style="font-weight:bold;fill:#000000;stroke:#000000;font-family:Swis721 BT;-inkscape-font-specification:Swis721 BT Bold"
           d="m 760.08517,556.10755 c -2.43213,3.75867 -5.61594,6.62188 -9.55143,8.58965 -3.93558,1.96777 -8.51231,2.95165 -13.73018,2.95166 -6.98672,-10e-6 -12.37045,-1.98988 -16.15121,-5.96965 -3.78078,-3.97975 -5.67116,-9.63985 -5.67116,-16.98032 0,-6.80979 1.89038,-12.00558 5.67116,-15.5874 3.78076,-3.58175 10.02677,-6.03593 18.73805,-7.36256 1.98985,-0.30949 4.5988,-0.66325 7.82687,-1.06127 8.18058,-1.06122 12.27088,-3.42697 12.27093,-7.09724 -5e-5,-2.91844 -0.90655,-5.00781 -2.7195,-6.26813 -1.81305,-1.2602 -4.84209,-1.89033 -9.08713,-1.89039 -3.89135,6e-5 -6.87617,0.77391 -8.95446,2.32153 -2.07835,1.54774 -3.11751,3.75872 -3.11748,6.63294 l 0,1.06127 -18.04159,0 0,-1.32659 c -10e-6,-7.38461 2.60894,-13.18842 7.82686,-17.41146 5.21789,-4.2229 12.42568,-6.33438 21.62338,-6.33445 10.08202,7e-5 17.80938,1.74674 23.18212,5.24002 5.37261,3.49341 8.05895,8.53444 8.05901,15.12309 l 0,40.99156 c -6e-5,3.00694 0.30947,5.25108 0.92862,6.73243 0.619,1.48136 1.65816,2.5979 3.11748,3.34963 l 0,3.25014 -20.0978,0 c -0.66335,-1.23815 -1.17187,-2.60895 -1.52558,-4.11242 -0.35381,-1.50346 -0.55279,-3.11747 -0.59696,-4.84204 z m -0.33165,-26.53175 c -3.13964,1.45928 -6.75458,2.63109 -10.84485,3.51545 -4.09035,0.88443 -6.20183,1.34873 -6.33446,1.39292 -3.40494,0.97286 -5.78174,2.1889 -7.13041,3.64812 -1.34872,1.45927 -2.02307,3.47126 -2.02304,6.03597 -3e-5,2.65319 0.86226,4.76467 2.58684,6.33445 1.72454,1.56981 4.04607,2.35471 6.96459,2.3547 5.21787,1e-5 9.31923,-1.47029 12.3041,-4.41091 2.98477,-2.94058 4.47718,-6.9535 4.47723,-12.03878 z"
           inkscape:connector-curvature="0" />
        <path
           id="path4209"
           style="font-weight:bold;fill:#000000;stroke:#000000;font-family:Swis721 BT;-inkscape-font-specification:Swis721 BT Bold"
           d="m 795.8367,565.06201 0,-97.70317 19.30185,0 0,97.70317 z"
           inkscape:connector-curvature="0" />
        <path
           id="path4211"
           style="font-weight:bold;fill:#000000;stroke:#000000;font-family:Swis721 BT;-inkscape-font-specification:Swis721 BT Bold"
           d="m 864.62028,565.59265 c -1.76882,0.0442 -3.8803,0.1216 -6.33445,0.23215 -2.45422,0.11055 -4.01296,0.16582 -4.67622,0.16582 -7.3847,0 -12.43678,-1.38186 -15.15627,-4.14558 -2.71951,-2.76372 -4.07926,-8.21378 -4.07925,-16.35019 l 0,-39.00168 -9.55143,0 0,-13.53119 9.55143,0 0,-19.69982 19.10286,0 0,19.69982 11.14333,0 0,13.53119 -11.14333,0 0,39.93029 c -3e-5,1.90146 0.42005,3.15066 1.26025,3.74761 0.84015,0.59698 2.56471,0.89546 5.1737,0.89544 l 4.70938,0 z"
           inkscape:connector-curvature="0" />
        <path
           id="path4213"
           style="font-weight:bold;fill:#000000;stroke:#000000;font-family:Swis721 BT;-inkscape-font-specification:Swis721 BT Bold"
           d="m 876.22787,565.06201 0,-97.70317 19.16919,0 0,33.56267 c 2.60893,-3.27219 5.71535,-5.73742 9.31928,-7.39573 3.60386,-1.65816 7.63889,-2.48728 12.10511,-2.48735 4.24503,7e-5 8.08107,0.7297 11.50815,2.18887 3.42695,1.45932 6.20173,3.53763 8.32433,6.23496 1.45918,1.81307 2.48728,3.89138 3.08432,6.23496 0.59689,2.3437 0.89537,6.10236 0.89545,11.27599 l 0,1.32659 0,46.76221 -19.16919,0 0,-37.74141 c -6e-5,-8.93231 -0.81812,-14.53714 -2.45419,-16.8145 -1.63617,-2.27725 -4.57677,-3.4159 -8.82181,-3.41596 -4.55465,6e-5 -8.15854,1.35981 -10.81168,4.07925 -2.65321,2.71956 -3.97979,6.42295 -3.97977,11.11017 l 0,42.78245 z"
           inkscape:connector-curvature="0" />
      </g>
      <g
         id="text4151"
         style="font-size:49.51023102px;font-style:italic;font-variant:normal;font-weight:bold;font-stretch:normal;text-align:start;line-height:125%;letter-spacing:0px;word-spacing:0px;writing-mode:lr-tb;text-anchor:start;fill:#000000;fill-opacity:1;stroke:none;font-family:Times New Roman;-inkscape-font-specification:'Times New Roman, Bold Italic'"
         transform="scale(1.0465018,0.95556451)">
        <path
           id="path4156"
           style="line-height:125%;font-family:Times New Roman;-inkscape-font-specification:'Times New Roman, Bold Italic'"
           d="m 366.30819,632.14923 -2.75594,-11.94241 c -0.46739,-2.0629 -1.03147,-3.4731 -1.69225,-4.23061 -0.49962,-0.58017 -1.41021,-0.99114 -2.73176,-1.23292 l 0.26592,-0.89447 15.73787,0 -0.2901,0.89447 c -1.53109,3e-5 -2.64717,0.31028 -3.34822,0.93073 -0.70109,0.62052 -1.05163,1.35786 -1.05161,2.21201 -2e-5,0.53187 0.14503,1.45858 0.43515,2.78011 l 2.12739,9.69415 5.29431,-7.30083 c 1.35377,-1.8695 2.19989,-3.18703 2.53836,-3.9526 0.33842,-0.76551 0.50765,-1.43838 0.50768,-2.0186 -3e-5,-0.58017 -0.2176,-1.08784 -0.65273,-1.52302 -0.43517,-0.43512 -1.13624,-0.7091 -2.10321,-0.82195 l 0.26592,-0.89447 9.83919,0 0,0.89447 c -0.88645,0.0967 -1.65198,0.38683 -2.29661,0.8703 -0.6447,0.48352 -1.9018,2.0146 -3.77129,4.59323 l -9.30735,12.81271 -2.17574,7.59092 c -0.4674,1.56332 -0.70109,2.4739 -0.70107,2.73177 -2e-5,0.69301 0.26591,1.26515 0.79777,1.71642 0.53183,0.45126 1.4263,0.67689 2.68342,0.67689 l 0.91864,0 -0.26592,0.89447 -16.77739,0 0.24175,-0.89447 c 1.22485,0.0161 2.20797,-0.14907 2.94934,-0.49558 0.74135,-0.34651 1.29737,-0.79374 1.66807,-1.34171 0.25785,-0.3868 0.63659,-1.41826 1.13622,-3.09439 z"
           inkscape:connector-curvature="0" />
        <path
           id="path4158"
           style="line-height:125%;font-family:Times New Roman;-inkscape-font-specification:'Times New Roman, Bold Italic'"
           d="m 399.7421,624.21986 c 1.27319,2e-5 2.46985,0.29415 3.58997,0.88238 1.12009,0.58828 1.96621,1.4062 2.53837,2.45375 0.57212,1.0476 0.85819,2.208 0.85821,3.48119 -2e-5,2.61091 -0.7293,5.2218 -2.18783,7.83268 -1.45857,2.61089 -3.38048,4.66979 -5.76572,6.17669 -2.38527,1.5069 -4.78664,2.26035 -7.20412,2.26035 -2.19187,0 -3.88814,-0.65272 -5.08882,-1.95817 -1.20069,-1.30544 -1.80104,-2.90098 -1.80103,-4.78663 -10e-6,-2.2402 0.44723,-4.33939 1.3417,-6.29757 0.89447,-1.95815 2.03069,-3.66651 3.40867,-5.12508 1.37796,-1.45853 2.96142,-2.6431 4.75037,-3.55371 1.78893,-0.91057 3.64234,-1.36586 5.56023,-1.36588 z m -0.99117,1.28127 c -0.8542,2e-5 -1.56333,0.24983 -2.1274,0.74942 -1.12817,1.01537 -2.40138,3.38853 -3.81963,7.11951 -1.41827,3.73101 -2.1274,7.09535 -2.12739,10.09303 -1e-5,0.74137 0.22562,1.3538 0.67689,1.83729 0.45126,0.4835 0.98311,0.72525 1.59555,0.72525 0.62854,0 1.18456,-0.1934 1.66807,-0.5802 0.70912,-0.58019 1.57941,-1.88161 2.61089,-3.90425 1.03145,-2.02262 1.87757,-4.25477 2.53836,-6.69645 0.66077,-2.44165 0.99116,-4.67783 0.99118,-6.70854 -2e-5,-0.83804 -0.20148,-1.48673 -0.60438,-1.94608 -0.40293,-0.4593 -0.87031,-0.68896 -1.40214,-0.68898 z"
           inkscape:connector-curvature="0" />
        <path
           id="path4160"
           style="line-height:125%;font-family:Times New Roman;-inkscape-font-specification:'Times New Roman, Bold Italic'"
           d="m 421.37865,624.21986 -4.68994,16.43894 c -0.22564,0.75749 -0.33845,1.28128 -0.33844,1.57137 -1e-5,0.14505 0.0564,0.25787 0.16922,0.33845 0.12892,0.12894 0.28203,0.1934 0.45932,0.1934 0.74136,0 1.73253,-0.66078 2.97352,-1.98235 1.77281,-1.91786 3.63428,-4.6738 5.5844,-8.26782 l 2.19992,-7.39752 6.11626,-0.21758 -4.64159,15.95545 c -0.38682,1.3538 -0.58022,2.1274 -0.5802,2.32079 -2e-5,0.12894 0.0604,0.2619 0.18132,0.39889 0.12085,0.13699 0.24575,0.20549 0.37471,0.20548 0.22561,10e-6 0.44318,-0.0967 0.65272,-0.29009 0.58018,-0.46738 1.34571,-1.4102 2.29662,-2.82847 l 0.82194,0.5802 c -2.24023,4.04527 -4.70607,6.0679 -7.39752,6.0679 -0.99925,0 -1.78493,-0.25383 -2.35706,-0.76151 -0.57215,-0.50767 -0.85822,-1.17248 -0.8582,-1.99443 -2e-5,-0.87029 0.20144,-1.97428 0.60437,-3.31196 l 1.18457,-4.08556 c -2.09517,3.04604 -3.61819,5.10091 -4.56906,6.1646 -1.45051,1.59555 -2.67134,2.65924 -3.6625,3.19109 -0.99118,0.53185 -1.93803,0.79777 -2.84055,0.79777 -0.85419,0 -1.59152,-0.31427 -2.21201,-0.94282 -0.62049,-0.62855 -0.93073,-1.42632 -0.93073,-2.39332 0,-0.82194 0.20145,-1.92593 0.60437,-3.31196 l 2.73177,-9.66997 c 0.45126,-1.57941 0.67689,-2.6431 0.67689,-3.19109 0,-0.24173 -0.0645,-0.45527 -0.1934,-0.64063 -0.12893,-0.18532 -0.34248,-0.33037 -0.64063,-0.43515 -0.29816,-0.10474 -0.85016,-0.15712 -1.65598,-0.15714 l 0.24175,-0.91864 8.24364,-1.42632 z"
           inkscape:connector-curvature="0" />
        <path
           id="path4162"
           style="line-height:125%;font-family:Times New Roman;-inkscape-font-specification:'Times New Roman, Bold Italic'"
           d="m 447.51174,624.21986 -3.65041,13.5863 c 2.99767,-6.62391 5.254,-10.70141 6.76897,-12.23251 0.8864,-0.90251 1.82116,-1.35377 2.80429,-1.35379 0.67688,2e-5 1.22485,0.2458 1.6439,0.73733 0.41901,0.49158 0.62853,1.18862 0.62855,2.09113 -2e-5,1.56333 -0.37876,2.87683 -1.13623,3.94051 -0.48351,0.67692 -1.02342,1.01536 -1.61972,1.01535 -0.64468,10e-6 -1.12817,-0.29814 -1.45049,-0.89447 -0.32235,-0.5963 -0.54798,-0.94684 -0.6769,-1.05161 -0.12895,-0.10474 -0.26594,-0.15712 -0.41097,-0.15714 -0.16118,2e-5 -0.33041,0.0484 -0.50767,0.14505 -0.35458,0.19342 -0.81794,0.66483 -1.39006,1.41423 -0.57215,0.74944 -1.27726,2.00251 -2.11531,3.7592 -0.83807,1.75672 -1.49079,3.24348 -1.95817,4.46028 -0.46739,1.21681 -1.12011,3.53357 -1.95816,6.95028 l -5.85033,0 3.98886,-16.02797 c 0.29009,-1.19261 0.43514,-1.98232 0.43515,-2.36914 -10e-6,-0.43513 -0.0766,-0.77358 -0.22967,-1.01534 -0.15311,-0.24173 -0.36262,-0.41902 -0.62854,-0.53185 -0.26593,-0.1128 -0.81793,-0.16921 -1.65599,-0.16923 l 0.21758,-0.70107 7.30082,-1.59554 z"
           inkscape:connector-curvature="0" />
        <path
           id="path4164"
           style="line-height:125%;font-family:Times New Roman;-inkscape-font-specification:'Times New Roman, Bold Italic'"
           d="m 481.45332,631.56903 -2.65924,9.13812 c -0.37069,1.28933 -0.55604,2.19992 -0.55603,2.73177 -10e-6,0.74136 0.24174,1.30141 0.72525,1.68015 0.48349,0.37874 1.57942,0.58423 3.28779,0.61646 l -0.31427,0.89447 -16.0038,0 0.26593,-0.89447 c 1.35379,-0.0161 2.31273,-0.14907 2.87681,-0.39888 0.56408,-0.24981 1.03146,-0.65675 1.40215,-1.22084 0.27398,-0.37068 0.68495,-1.5069 1.23292,-3.40866 l 6.0679,-20.8146 c 0.41902,-1.386 0.62854,-2.37717 0.62855,-2.97352 -1e-5,-0.59628 -0.26594,-1.09993 -0.79777,-1.51093 -0.53186,-0.41094 -1.49886,-0.63255 -2.90099,-0.66481 l 0.26592,-0.89447 12.98193,0 c 3.56175,3e-5 6.12429,0.45129 7.68763,1.35379 2.41746,1.41829 3.6262,3.54568 3.62623,6.38218 -3e-5,2.73985 -1.20474,5.15331 -3.61415,7.24039 -2.40946,2.08712 -5.65292,3.13066 -9.7304,3.13065 -1.22488,10e-6 -2.71567,-0.12892 -4.47236,-0.3868 z m 0.4835,-1.86147 c 1.04756,0.12895 1.91786,0.19342 2.61089,0.1934 2.22407,2e-5 3.97272,-1.01533 5.24596,-3.04604 1.27318,-2.03067 1.90979,-4.15 1.90981,-6.358 -2e-5,-1.49882 -0.41099,-2.66324 -1.23292,-3.49328 -0.82197,-0.82997 -1.95819,-1.24497 -3.40866,-1.245 -0.30624,3e-5 -0.68498,0.0161 -1.13622,0.0484 z"
           inkscape:connector-curvature="0" />
        <path
           id="path4166"
           style="line-height:125%;font-family:Times New Roman;-inkscape-font-specification:'Times New Roman, Bold Italic'"
           d="m 521.39028,624.55831 -4.68994,16.07632 -0.4835,1.95816 c -0.0484,0.24176 -0.0725,0.41904 -0.0725,0.53185 -2e-5,0.1934 0.0685,0.36263 0.20549,0.50768 0.13697,0.14505 0.27799,0.21757 0.42306,0.21757 0.33843,0 0.80581,-0.25786 1.40214,-0.7736 0.24173,-0.20951 0.82193,-0.95087 1.7406,-2.22409 l 0.84612,0.43515 c -1.1443,2.09516 -2.36513,3.62221 -3.6625,4.58114 -1.29741,0.95894 -2.69552,1.43841 -4.19435,1.43841 -0.91866,0 -1.61973,-0.23772 -2.10322,-0.71316 -0.48351,-0.47544 -0.72526,-1.07578 -0.72524,-1.80103 -2e-5,-0.62854 0.25785,-1.797 0.77359,-3.50536 l 0.5802,-1.95817 c -1.86954,3.20721 -3.66654,5.47965 -5.39101,6.81733 -0.99923,0.77359 -2.06293,1.16039 -3.19109,1.16039 -1.48273,0 -2.55448,-0.6084 -3.21526,-1.8252 -0.66078,-1.21681 -0.99117,-2.59075 -0.99117,-4.12183 0,-2.27243 0.69301,-4.87929 2.07904,-7.82058 1.38603,-2.94127 3.2072,-5.30638 5.46353,-7.09534 1.8534,-1.48271 3.594,-2.22407 5.22179,-2.22409 0.90251,2e-5 1.62776,0.26191 2.17574,0.78568 0.54795,0.52381 0.95086,1.47872 1.20874,2.86473 l 0.8703,-2.97352 z m -7.73598,4.59323 c -1e-5,-1.30543 -0.20147,-2.24825 -0.60437,-2.82847 -0.29011,-0.40289 -0.68497,-0.60435 -1.18457,-0.60437 -0.49963,2e-5 -1.01536,0.24177 -1.5472,0.72525 -1.07982,0.99925 -2.24424,3.02591 -3.49327,6.07999 -1.24905,3.05411 -1.87356,5.6932 -1.87356,7.91729 0,0.85418 0.14102,1.47064 0.42306,1.84938 0.28204,0.37874 0.59228,0.56811 0.93074,0.56811 0.72524,0 1.45854,-0.41903 2.19992,-1.2571 1.06368,-1.19262 2.02262,-2.65117 2.87681,-4.37566 1.51495,-3.02991 2.27243,-5.72138 2.27244,-8.07442 z"
           inkscape:connector-curvature="0" />
        <path
           id="path4168"
           style="line-height:125%;font-family:Times New Roman;-inkscape-font-specification:'Times New Roman, Bold Italic'"
           d="m 534.15464,624.21986 -3.65041,13.5863 c 2.99768,-6.62391 5.254,-10.70141 6.76898,-12.23251 0.8864,-0.90251 1.82116,-1.35377 2.80429,-1.35379 0.67688,2e-5 1.22484,0.2458 1.64389,0.73733 0.41902,0.49158 0.62853,1.18862 0.62855,2.09113 -2e-5,1.56333 -0.37876,2.87683 -1.13622,3.94051 -0.48352,0.67692 -1.02342,1.01536 -1.61972,1.01535 -0.64468,10e-6 -1.12818,-0.29814 -1.45049,-0.89447 -0.32235,-0.5963 -0.54798,-0.94684 -0.6769,-1.05161 -0.12895,-0.10474 -0.26594,-0.15712 -0.41098,-0.15714 -0.16118,2e-5 -0.3304,0.0484 -0.50767,0.14505 -0.35458,0.19342 -0.81793,0.66483 -1.39006,1.41423 -0.57215,0.74944 -1.27725,2.00251 -2.1153,3.7592 -0.83808,1.75672 -1.4908,3.24348 -1.95817,4.46028 -0.46739,1.21681 -1.12011,3.53357 -1.95817,6.95028 l -5.85033,0 3.98886,-16.02797 c 0.2901,-1.19261 0.43515,-1.98232 0.43515,-2.36914 0,-0.43513 -0.0766,-0.77358 -0.22966,-1.01534 -0.15311,-0.24173 -0.36263,-0.41902 -0.62855,-0.53185 -0.26593,-0.1128 -0.81792,-0.16921 -1.65598,-0.16923 l 0.21757,-0.70107 7.30083,-1.59554 z"
           inkscape:connector-curvature="0" />
        <path
           id="path4170"
           style="line-height:125%;font-family:Times New Roman;-inkscape-font-specification:'Times New Roman, Bold Italic'"
           d="m 555.86371,618.32118 -1.93399,6.57557 3.16691,0 -0.84612,2.78012 -3.11856,0 -4.03722,14.02145 c -0.25787,0.8703 -0.3868,1.53108 -0.38679,1.98234 -10e-6,0.20952 0.0725,0.39084 0.21757,0.54394 0.14504,0.15311 0.30621,0.22966 0.4835,0.22966 0.27397,0 0.55601,-0.11281 0.84612,-0.33845 0.74136,-0.56407 1.60359,-1.54719 2.58672,-2.94934 l 0.84612,0.53185 c -1.11206,1.934 -2.33692,3.35226 -3.67459,4.25479 -1.33768,0.90253 -2.65119,1.35379 -3.94051,1.35379 -1.09593,0 -1.94608,-0.27801 -2.55045,-0.83403 -0.60438,-0.55602 -0.90656,-1.26113 -0.90656,-2.11531 0,-0.93476 0.20951,-2.13544 0.62854,-3.60206 l 3.81964,-13.07863 -3.28779,0 0.4835,-1.78894 c 2.06292,-0.75746 3.80351,-1.64388 5.22178,-2.65925 1.41826,-1.01532 3.12661,-2.65115 5.12509,-4.9075 z"
           inkscape:connector-curvature="0" />
        <path
           id="path4172"
           style="line-height:125%;font-family:Times New Roman;-inkscape-font-specification:'Times New Roman, Bold Italic'"
           d="m 568.62807,624.21986 -2.99769,10.37104 c 2.01456,-3.02991 3.52146,-5.10089 4.52071,-6.21296 1.46659,-1.61164 2.73175,-2.70757 3.79546,-3.28779 1.06368,-0.58017 2.06291,-0.87027 2.99769,-0.87029 0.83804,2e-5 1.55523,0.31026 2.15157,0.93073 0.59629,0.62051 0.89444,1.43037 0.89447,2.42958 -3e-5,0.90255 -0.19342,1.99848 -0.5802,3.28779 l -3.09439,10.32269 c -0.25788,0.90253 -0.38682,1.49079 -0.3868,1.76477 -2e-5,0.16117 0.0604,0.30622 0.18132,0.43515 0.12085,0.12893 0.24575,0.1934 0.37471,0.1934 0.16114,0 0.33037,-0.0645 0.50767,-0.1934 0.56406,-0.46738 1.1362,-1.12816 1.71642,-1.98235 0.14502,-0.22562 0.37872,-0.56407 0.70107,-1.01534 l 0.91865,0.55602 c -2.36917,3.9808 -4.85918,5.9712 -7.47005,5.9712 -0.99925,0 -1.7809,-0.25786 -2.34497,-0.77359 -0.56409,-0.51573 -0.84613,-1.1604 -0.84612,-1.934 -10e-6,-0.67689 0.19338,-1.68418 0.5802,-3.02186 l 3.02186,-10.32269 c 0.2095,-0.67688 0.31426,-1.1765 0.31428,-1.49885 -2e-5,-0.17726 -0.0725,-0.3344 -0.21758,-0.47141 -0.14507,-0.13697 -0.31429,-0.20547 -0.50767,-0.20548 -0.61245,10e-6 -1.35381,0.41905 -2.22409,1.25709 -2.22411,2.12741 -4.37567,5.29432 -6.45471,9.50074 l -1.98234,7.17995 -6.1646,0 4.52071,-15.52029 c 0.43514,-1.53106 0.65271,-2.61893 0.65272,-3.26362 -10e-6,-0.27396 -0.0645,-0.50362 -0.1934,-0.68898 -0.12894,-0.18532 -0.33845,-0.33037 -0.62855,-0.43515 -0.2901,-0.10474 -0.83807,-0.15712 -1.64389,-0.15714 l 0.26592,-0.91864 8.14695,-1.42632 z"
           inkscape:connector-curvature="0" />
        <path
           id="path4174"
           style="line-height:125%;font-family:Times New Roman;-inkscape-font-specification:'Times New Roman, Bold Italic'"
           d="m 590.69978,637.56441 c -0.14506,1.04759 -0.21758,1.90983 -0.21757,2.58672 -10e-6,1.20875 0.35052,2.17574 1.0516,2.90099 0.70107,0.72525 1.63986,1.08787 2.81638,1.08787 1.12815,0 2.26034,-0.27398 3.39658,-0.82195 1.1362,-0.54796 2.45374,-1.5069 3.9526,-2.87681 l 0.72524,0.65272 c -1.85342,2.24021 -3.65848,3.83575 -5.41518,4.78663 -1.75672,0.95088 -3.69877,1.42632 -5.82615,1.42632 -2.69148,0 -4.55295,-0.64466 -5.58441,-1.93399 -1.03146,-1.28933 -1.54719,-2.78011 -1.54719,-4.47236 0,-2.64312 0.76956,-5.28624 2.3087,-7.92937 1.53913,-2.64311 3.63429,-4.76244 6.28548,-6.35801 2.65117,-1.59552 5.31444,-2.39329 7.98981,-2.39331 1.35378,2e-5 2.37718,0.32235 3.07022,0.96699 0.69299,0.64469 1.0395,1.45858 1.03952,2.44167 -2e-5,1.17653 -0.33847,2.32081 -1.01535,3.43284 -0.93478,1.51497 -2.11129,2.73581 -3.52954,3.6625 -1.41828,0.92671 -3.00576,1.63182 -4.76246,2.1153 -1.17652,0.32235 -2.75595,0.56409 -4.73828,0.72525 z m 0.21757,-1.25709 c 1.41826,-0.20951 2.51821,-0.49558 3.29988,-0.85821 0.78164,-0.36262 1.54718,-0.94281 2.29662,-1.7406 0.74941,-0.79776 1.3981,-1.80504 1.94608,-3.02186 0.54795,-1.21679 0.82193,-2.35704 0.82195,-3.42075 -2e-5,-0.45125 -0.12492,-0.80581 -0.37472,-1.0637 -0.24982,-0.25785 -0.56812,-0.38678 -0.95491,-0.3868 -0.77361,2e-5 -1.6439,0.53993 -2.61089,1.61972 -1.77283,1.96624 -3.2475,4.92364 -4.42401,8.8722 z"
           inkscape:connector-curvature="0" />
        <path
           id="path4176"
           style="line-height:125%;font-family:Times New Roman;-inkscape-font-specification:'Times New Roman, Bold Italic'"
           d="m 616.63946,624.21986 -3.65041,13.5863 c 2.99768,-6.62391 5.254,-10.70141 6.76898,-12.23251 0.88639,-0.90251 1.82116,-1.35377 2.80429,-1.35379 0.67688,2e-5 1.22484,0.2458 1.64389,0.73733 0.41901,0.49158 0.62853,1.18862 0.62855,2.09113 -2e-5,1.56333 -0.37876,2.87683 -1.13622,3.94051 -0.48352,0.67692 -1.02342,1.01536 -1.61972,1.01535 -0.64468,10e-6 -1.12818,-0.29814 -1.4505,-0.89447 -0.32234,-0.5963 -0.54798,-0.94684 -0.67689,-1.05161 -0.12895,-0.10474 -0.26594,-0.15712 -0.41098,-0.15714 -0.16118,2e-5 -0.3304,0.0484 -0.50767,0.14505 -0.35458,0.19342 -0.81793,0.66483 -1.39006,1.41423 -0.57215,0.74944 -1.27725,2.00251 -2.1153,3.7592 -0.83808,1.75672 -1.4908,3.24348 -1.95817,4.46028 -0.46739,1.21681 -1.12011,3.53357 -1.95817,6.95028 l -5.85033,0 3.98886,-16.02797 c 0.29009,-1.19261 0.43514,-1.98232 0.43515,-2.36914 -10e-6,-0.43513 -0.0766,-0.77358 -0.22966,-1.01534 -0.15312,-0.24173 -0.36263,-0.41902 -0.62855,-0.53185 -0.26593,-0.1128 -0.81792,-0.16921 -1.65598,-0.16923 l 0.21757,-0.70107 7.30083,-1.59554 z"
           inkscape:connector-curvature="0" />
        <path
           id="path4178"
           style="line-height:125%;font-family:Times New Roman;-inkscape-font-specification:'Times New Roman, Bold Italic'"
           d="m 647.65589,613.09939 c 0.99922,4e-5 1.84131,0.34654 2.52628,1.03953 0.68494,0.69304 1.02742,1.5311 1.02744,2.51419 -2e-5,0.98314 -0.34653,1.8212 -1.03953,2.51419 -0.69302,0.69304 -1.53109,1.03955 -2.51419,1.03952 -0.967,3e-5 -1.79701,-0.34648 -2.49001,-1.03952 -0.69303,-0.69299 -1.03953,-1.53105 -1.03953,-2.51419 0,-0.98309 0.34248,-1.82115 1.02744,-2.51419 0.68495,-0.69299 1.51898,-1.03949 2.5021,-1.03953 z m 1.49885,11.12047 -4.95586,17.18836 c -0.27399,0.98312 -0.41098,1.62778 -0.41097,1.934 -10e-6,0.17728 0.0725,0.34248 0.21757,0.49558 0.14504,0.15311 0.29815,0.22967 0.45932,0.22966 0.27398,10e-6 0.54796,-0.12087 0.82195,-0.36262 0.72524,-0.59631 1.59554,-1.67612 2.61089,-3.23944 l 0.82195,0.4835 c -2.43362,4.23867 -5.02033,6.358 -7.76015,6.358 -1.04758,0 -1.88162,-0.29413 -2.5021,-0.88238 -0.62049,-0.58826 -0.93074,-1.33365 -0.93074,-2.23618 0,-0.59631 0.13699,-1.35379 0.41098,-2.27244 l 3.36031,-11.55561 c 0.32233,-1.11203 0.48349,-1.9501 0.4835,-2.5142 -10e-6,-0.35454 -0.15311,-0.66882 -0.45933,-0.94282 -0.30622,-0.27396 -0.72525,-0.41095 -1.25709,-0.41097 -0.24175,2e-5 -0.53185,0.008 -0.8703,0.0242 l 0.31428,-0.96699 8.19529,-1.32962 z"
           inkscape:connector-curvature="0" />
        <path
           id="path4180"
           style="line-height:125%;font-family:Times New Roman;-inkscape-font-specification:'Times New Roman, Bold Italic'"
           d="m 663.49046,624.21986 -2.99769,10.37104 c 2.01457,-3.02991 3.52147,-5.10089 4.52071,-6.21296 1.4666,-1.61164 2.73175,-2.70757 3.79547,-3.28779 1.06367,-0.58017 2.0629,-0.87027 2.99769,-0.87029 0.83804,2e-5 1.55523,0.31026 2.15156,0.93073 0.59629,0.62051 0.89445,1.43037 0.89448,2.42958 -3e-5,0.90255 -0.19343,1.99848 -0.5802,3.28779 l -3.09439,10.32269 c -0.25789,0.90253 -0.38682,1.49079 -0.3868,1.76477 -2e-5,0.16117 0.0604,0.30622 0.18131,0.43515 0.12086,0.12893 0.24576,0.1934 0.37471,0.1934 0.16115,0 0.33037,-0.0645 0.50768,-0.1934 0.56406,-0.46738 1.13619,-1.12816 1.71642,-1.98235 0.14502,-0.22562 0.37871,-0.56407 0.70107,-1.01534 l 0.91864,0.55602 c -2.36916,3.9808 -4.85917,5.9712 -7.47004,5.9712 -0.99925,0 -1.78091,-0.25786 -2.34497,-0.77359 -0.5641,-0.51573 -0.84614,-1.1604 -0.84612,-1.934 -2e-5,-0.67689 0.19338,-1.68418 0.58019,-3.02186 l 3.02187,-10.32269 c 0.2095,-0.67688 0.31425,-1.1765 0.31427,-1.49885 -2e-5,-0.17726 -0.0725,-0.3344 -0.21757,-0.47141 -0.14507,-0.13697 -0.31429,-0.20547 -0.50767,-0.20548 -0.61245,10e-6 -1.35382,0.41905 -2.2241,1.25709 -2.2241,2.12741 -4.37567,5.29432 -6.4547,9.50074 l -1.98234,7.17995 -6.16461,0 4.52071,-15.52029 c 0.43515,-1.53106 0.65272,-2.61893 0.65272,-3.26362 0,-0.27396 -0.0645,-0.50362 -0.19339,-0.68898 -0.12894,-0.18532 -0.33846,-0.33037 -0.62855,-0.43515 -0.29011,-0.10474 -0.83807,-0.15712 -1.6439,-0.15714 l 0.26593,-0.91864 8.14694,-1.42632 z"
           inkscape:connector-curvature="0" />
        <path
           id="path4182"
           style="line-height:125%;font-family:Times New Roman;-inkscape-font-specification:'Times New Roman, Bold Italic'"
           d="m 704.92626,628.93397 11.99076,0 2.65924,-9.1623 c 0.35454,-1.25707 0.53182,-2.216 0.53185,-2.87681 -3e-5,-0.64464 -0.21761,-1.13619 -0.65272,-1.47467 -0.43518,-0.33842 -1.48276,-0.56405 -3.14274,-0.6769 l 0.26592,-0.89447 16.29389,0 -0.26592,0.89447 c -1.59558,3e-5 -2.80433,0.33848 -3.62624,1.01535 -0.82198,0.67692 -1.52305,2.0146 -2.10321,4.01303 l -6.09208,20.98383 c -0.40295,1.36992 -0.60441,2.35303 -0.60438,2.94934 -3e-5,0.59632 0.21755,1.04758 0.65273,1.3538 0.56405,0.41903 1.58745,0.64466 3.07021,0.67689 l -0.24175,0.89447 -15.97962,0 0.36262,-0.89447 c 1.54718,0 2.68743,-0.30218 3.42076,-0.90656 0.73328,-0.60437 1.40615,-1.96219 2.0186,-4.07347 l 2.82847,-9.76667 -11.94241,0 -2.80429,9.76667 c -0.40293,1.33768 -0.60439,2.32885 -0.60438,2.97351 -1e-5,0.58021 0.24577,1.05162 0.73734,1.41424 0.49154,0.36262 1.46257,0.56005 2.91308,0.59228 l -0.24175,0.89447 -15.76205,0 0.26592,-0.89447 c 1.5472,0 2.67939,-0.30218 3.39658,-0.90656 0.71719,-0.60437 1.382,-1.96219 1.99443,-4.07347 l 6.09208,-20.98383 c 0.35456,-1.20872 0.53184,-2.1596 0.53185,-2.85264 -10e-6,-0.66075 -0.21356,-1.16036 -0.64064,-1.49884 -0.4271,-0.33842 -1.44647,-0.56405 -3.05812,-0.6769 l 0.26592,-0.89447 16.02797,0 -0.36262,0.89447 c -1.48275,3e-5 -2.60286,0.31833 -3.36032,0.95491 -0.7575,0.63663 -1.45051,1.99446 -2.07904,4.07347 z"
           inkscape:connector-curvature="0" />
        <path
           id="path4184"
           style="line-height:125%;font-family:Times New Roman;-inkscape-font-specification:'Times New Roman, Bold Italic'"
           d="m 736.42619,637.56441 c -0.14506,1.04759 -0.21758,1.90983 -0.21757,2.58672 -10e-6,1.20875 0.35052,2.17574 1.0516,2.90099 0.70107,0.72525 1.63986,1.08787 2.81638,1.08787 1.12815,0 2.26034,-0.27398 3.39658,-0.82195 1.1362,-0.54796 2.45373,-1.5069 3.9526,-2.87681 l 0.72524,0.65272 c -1.85342,2.24021 -3.65848,3.83575 -5.41518,4.78663 -1.75672,0.95088 -3.69877,1.42632 -5.82615,1.42632 -2.69148,0 -4.55295,-0.64466 -5.58441,-1.93399 -1.03146,-1.28933 -1.54719,-2.78011 -1.54719,-4.47236 0,-2.64312 0.76956,-5.28624 2.3087,-7.92937 1.53913,-2.64311 3.63429,-4.76244 6.28548,-6.35801 2.65117,-1.59552 5.31444,-2.39329 7.98981,-2.39331 1.35378,2e-5 2.37718,0.32235 3.07022,0.96699 0.69299,0.64469 1.03949,1.45858 1.03952,2.44167 -3e-5,1.17653 -0.33847,2.32081 -1.01535,3.43284 -0.93478,1.51497 -2.11129,2.73581 -3.52954,3.6625 -1.41828,0.92671 -3.00576,1.63182 -4.76246,2.1153 -1.17652,0.32235 -2.75595,0.56409 -4.73828,0.72525 z m 0.21757,-1.25709 c 1.41826,-0.20951 2.51821,-0.49558 3.29988,-0.85821 0.78164,-0.36262 1.54718,-0.94281 2.29662,-1.7406 0.74941,-0.79776 1.3981,-1.80504 1.94608,-3.02186 0.54795,-1.21679 0.82193,-2.35704 0.82195,-3.42075 -2e-5,-0.45125 -0.12492,-0.80581 -0.37472,-1.0637 -0.24982,-0.25785 -0.56812,-0.38678 -0.95491,-0.3868 -0.77361,2e-5 -1.6439,0.53993 -2.61089,1.61972 -1.77283,1.96624 -3.2475,4.92364 -4.42401,8.8722 z"
           inkscape:connector-curvature="0" />
        <path
           id="path4186"
           style="line-height:125%;font-family:Times New Roman;-inkscape-font-specification:'Times New Roman, Bold Italic'"
           d="m 774.35662,624.55831 -4.68994,16.07632 -0.4835,1.95816 c -0.0484,0.24176 -0.0725,0.41904 -0.0725,0.53185 -2e-5,0.1934 0.0685,0.36263 0.20549,0.50768 0.13697,0.14505 0.27799,0.21757 0.42306,0.21757 0.33843,0 0.80581,-0.25786 1.40214,-0.7736 0.24173,-0.20951 0.82193,-0.95087 1.7406,-2.22409 l 0.84612,0.43515 c -1.1443,2.09516 -2.36514,3.62221 -3.6625,4.58114 -1.29741,0.95894 -2.69552,1.43841 -4.19435,1.43841 -0.91866,0 -1.61973,-0.23772 -2.10322,-0.71316 -0.48351,-0.47544 -0.72526,-1.07578 -0.72525,-1.80103 -10e-6,-0.62854 0.25786,-1.797 0.7736,-3.50536 l 0.5802,-1.95817 c -1.86954,3.20721 -3.66654,5.47965 -5.39101,6.81733 -0.99923,0.77359 -2.06293,1.16039 -3.19109,1.16039 -1.48273,0 -2.55448,-0.6084 -3.21526,-1.8252 -0.66078,-1.21681 -0.99117,-2.59075 -0.99117,-4.12183 0,-2.27243 0.69301,-4.87929 2.07904,-7.82058 1.38603,-2.94127 3.2072,-5.30638 5.46353,-7.09534 1.8534,-1.48271 3.59399,-2.22407 5.22178,-2.22409 0.90252,2e-5 1.62777,0.26191 2.17575,0.78568 0.54795,0.52381 0.95086,1.47872 1.20874,2.86473 l 0.8703,-2.97352 z m -7.73598,4.59323 c -10e-6,-1.30543 -0.20147,-2.24825 -0.60437,-2.82847 -0.29011,-0.40289 -0.68497,-0.60435 -1.18457,-0.60437 -0.49963,2e-5 -1.01536,0.24177 -1.5472,0.72525 -1.07982,0.99925 -2.24424,3.02591 -3.49327,6.07999 -1.24905,3.05411 -1.87357,5.6932 -1.87356,7.91729 -1e-5,0.85418 0.14101,1.47064 0.42306,1.84938 0.28204,0.37874 0.59228,0.56811 0.93074,0.56811 0.72524,0 1.45854,-0.41903 2.19991,-1.2571 1.06369,-1.19262 2.02263,-2.65117 2.87682,-4.37566 1.51495,-3.02991 2.27243,-5.72138 2.27244,-8.07442 z"
           inkscape:connector-curvature="0" />
        <path
           id="path4188"
           style="line-height:125%;font-family:Times New Roman;-inkscape-font-specification:'Times New Roman, Bold Italic'"
           d="m 791.0615,613.09939 -8.0019,27.22096 c -0.46739,1.61167 -0.70108,2.61895 -0.70108,3.02187 0,0.20952 0.0685,0.3868 0.20549,0.53184 0.13699,0.14506 0.28606,0.21758 0.44724,0.21758 0.29009,0 0.56407,-0.11282 0.82194,-0.33845 0.77359,-0.62854 1.63583,-1.69224 2.58672,-3.19109 l 0.94282,0.43515 c -1.53109,2.44973 -3.03799,4.19838 -4.52071,5.24596 -1.01535,0.70913 -2.09516,1.06369 -3.23944,1.06369 -1.0637,0 -1.90982,-0.28607 -2.53836,-0.85821 -0.62855,-0.57214 -0.94282,-1.26112 -0.94282,-2.06695 0,-0.59631 0.19339,-1.55525 0.58019,-2.87682 l 6.52723,-22.28927 c 0.35456,-1.22484 0.53184,-2.03872 0.53185,-2.44167 -10e-6,-0.38677 -0.16923,-0.69298 -0.50767,-0.91865 -0.45128,-0.3223 -1.13623,-0.45929 -2.05487,-0.41097 l 0.26592,-0.91865 8.14695,-1.42632 z"
           inkscape:connector-curvature="0" />
        <path
           id="path4190"
           style="line-height:125%;font-family:Times New Roman;-inkscape-font-specification:'Times New Roman, Bold Italic'"
           d="m 803.31818,618.32118 -1.93399,6.57557 3.16691,0 -0.84612,2.78012 -3.11857,0 -4.03721,14.02145 c -0.25787,0.8703 -0.3868,1.53108 -0.3868,1.98234 0,0.20952 0.0725,0.39084 0.21758,0.54394 0.14504,0.15311 0.30621,0.22966 0.4835,0.22966 0.27397,0 0.55601,-0.11281 0.84612,-0.33845 0.74135,-0.56407 1.60359,-1.54719 2.58671,-2.94934 l 0.84613,0.53185 c -1.11206,1.934 -2.33692,3.35226 -3.67459,4.25479 -1.33769,0.90253 -2.65119,1.35379 -3.94051,1.35379 -1.09594,0 -1.94609,-0.27801 -2.55046,-0.83403 -0.60437,-0.55602 -0.90656,-1.26113 -0.90656,-2.11531 0,-0.93476 0.20952,-2.13544 0.62855,-3.60206 l 3.81964,-13.07863 -3.28779,0 0.4835,-1.78894 c 2.06292,-0.75746 3.80351,-1.64388 5.22178,-2.65925 1.41825,-1.01532 3.12661,-2.65115 5.12508,-4.9075 z"
           inkscape:connector-curvature="0" />
        <path
           id="path4192"
           style="line-height:125%;font-family:Times New Roman;-inkscape-font-specification:'Times New Roman, Bold Italic'"
           d="m 819.12858,613.09939 -6.28548,21.7816 c 2.17573,-3.20719 3.75515,-5.37487 4.73828,-6.50305 1.4666,-1.62776 2.72772,-2.72771 3.78338,-3.29987 1.05561,-0.57212 2.06693,-0.85819 3.03395,-0.85821 0.82192,2e-5 1.52702,0.31026 2.1153,0.93073 0.58824,0.62051 0.88236,1.44649 0.88239,2.47793 -3e-5,0.87031 -0.19343,1.95819 -0.5802,3.26361 l -3.07022,10.29852 c -0.274,0.90253 -0.41099,1.50691 -0.41097,1.81312 -2e-5,0.14505 0.0564,0.27801 0.16923,0.39888 0.11279,0.12088 0.24172,0.18132 0.38679,0.18132 0.19338,0 0.38678,-0.0806 0.5802,-0.24175 0.51571,-0.40292 1.06368,-1.04758 1.6439,-1.934 0.14502,-0.22562 0.37871,-0.56407 0.70107,-1.01534 l 0.94282,0.53184 c -1.38605,2.28857 -2.69955,3.85993 -3.94051,4.71411 -1.241,0.85418 -2.41751,1.28127 -3.52954,1.28127 -0.99924,0 -1.7809,-0.25786 -2.34497,-0.77359 -0.56409,-0.51573 -0.84613,-1.1604 -0.84612,-1.934 -1e-5,-0.70912 0.19339,-1.71641 0.5802,-3.02186 l 2.99769,-10.29852 c 0.19338,-0.70911 0.29008,-1.22484 0.2901,-1.54719 -2e-5,-0.17727 -0.0685,-0.3344 -0.20549,-0.47141 -0.13701,-0.13698 -0.29414,-0.20547 -0.47141,-0.20549 -0.58021,2e-5 -1.37798,0.48352 -2.39332,1.4505 -2.09517,1.98235 -4.19032,5.09286 -6.28547,9.33151 l -2.15157,7.17995 -5.99538,0 7.92937,-27.31765 c 0.32233,-1.16037 0.48349,-1.99037 0.4835,-2.49002 -10e-6,-0.40288 -0.16117,-0.71716 -0.4835,-0.94282 -0.41904,-0.30618 -1.0637,-0.43512 -1.93399,-0.3868 l 0.16922,-0.967 8.05025,-1.42632 z"
           inkscape:connector-curvature="0" />
      </g>
    </g>
  </g>
</svg>
