<?xml version="1.0" encoding="UTF-8" standalone="no"?>
<!-- Created with Inkscape (http://www.inkscape.org/) -->

<svg
   width="51.998928mm"
   height="52.916759mm"
   viewBox="0 0 51.998929 52.91676"
   version="1.1"
   id="svg3217"
   inkscape:version="1.3.2 (091e20e, 2023-11-25, custom)"
   sodipodi:docname="San Miguel Corporation 2012.svg"
   xmlns:inkscape="http://www.inkscape.org/namespaces/inkscape"
   xmlns:sodipodi="http://sodipodi.sourceforge.net/DTD/sodipodi-0.dtd"
   xmlns="http://www.w3.org/2000/svg"
   xmlns:svg="http://www.w3.org/2000/svg">
  <sodipodi:namedview
     id="namedview3219"
     pagecolor="#505050"
     bordercolor="#eeeeee"
     borderopacity="0"
     inkscape:showpageshadow="true"
     inkscape:pageopacity="0"
     inkscape:pagecheckerboard="false"
     inkscape:deskcolor="#d1d1d1"
     inkscape:document-units="mm"
     showgrid="false"
     inkscape:zoom="3.9156336"
     inkscape:cx="32.051007"
     inkscape:cy="18.515522"
     inkscape:window-width="1920"
     inkscape:window-height="991"
     inkscape:window-x="-9"
     inkscape:window-y="-9"
     inkscape:window-maximized="1"
     inkscape:current-layer="layer1" />
  <defs
     id="defs3214" />
  <g
     inkscape:label="Layer 1"
     inkscape:groupmode="layer"
     id="layer1"
     transform="translate(-74.347941,-107.42052)">
    <path
       id="path2"
       d="m 100.3589,113.04079 c 4.9445,0 9.57392,1.83561 8.91124,2.71205 -0.0901,0.15254 -0.25745,0.17757 -0.49352,0.12172 l -1.40248,3.03454 c 0,0 -3.28549,-1.5419 -7.01802,-1.5419 -3.73347,0 -7.034755,1.5419 -7.034755,1.5419 l -1.402489,-3.03454 c -0.236084,0.0558 -0.403365,0.0306 -0.49352,-0.12172 -0.662672,-0.87644 3.966749,-2.71205 8.911244,-2.71205 z"
       style="display:inline;fill:#e8412c;fill-opacity:1;fill-rule:nonzero;stroke:none;stroke-width:0.929417"
       clip-path="none" />
    <path
       id="path4"
       d="m 100.42397,107.56058 h 1.78633 l -0.0558,1.67203 h -0.88294 l 0.0195,1.6153 c 0,0 1.19802,-0.13858 2.73063,0.22315 l 0.33737,-1.68409 -0.75654,-0.14675 0.27696,-1.64879 3.58383,0.69334 -0.37269,1.63114 -0.88574,-0.17204 -0.34388,1.74545 c 0,0 2.22874,0.55766 2.64698,0.83556 l 0.71936,-1.69435 -0.64036,-0.2751 0.62177,-1.55213 3.35334,1.43969 -0.711,1.514 -0.83462,-0.35782 -1.65715,3.54665 c -0.89317,-0.83181 -3.05313,-1.48705 -4.7298,-1.82164 0,0 -1.8988,-0.40338 -4.20282,-0.40338 -2.30309,0 -4.361747,0.40338 -4.361747,0.40338 -1.675737,0.33459 -3.835701,0.98983 -4.728868,1.82164 l -1.65715,-3.54665 -0.834614,0.35782 -0.711004,-1.514 3.353333,-1.43969 0.620851,1.55213 -0.639438,0.2751 0.719366,1.69435 c 0.418237,-0.2779 2.646979,-0.83556 2.646979,-0.83556 l -0.343885,-1.74545 -0.885733,0.17204 -0.372696,-1.63114 3.583828,-0.69334 0.276967,1.64879 -0.756547,0.14675 0.33738,1.68409 c 1.532605,-0.36154 2.730624,-0.22315 2.730624,-0.22315 l 0.0195,-1.6153 H 98.53997 l -0.05482,-1.67203 h 1.78634 z"
       style="display:inline;fill:#fcd719;fill-opacity:1;fill-rule:nonzero;stroke:none;stroke-width:0.929417"
       clip-path="none" />
    <path
       id="path6"
       d="m 100.32777,119.84197 c -4.694476,0 -7.287547,-1.78262 -7.287547,-1.78262 0,0 -2.681366,1.71942 -4.239998,2.54847 0,0 2.96112,3.60519 2.729697,9.58228 -0.190532,4.94076 -2.620955,8.21697 -2.702743,8.35357 -0.272319,0.31415 0.546496,1.69247 2.020551,2.56612 2.484329,1.28261 5.187072,1.36531 7.616565,2.70275 0.710073,0.35503 1.882995,1.58279 1.882995,1.58279 0,0 1.17385,-1.22776 1.88393,-1.58279 2.42949,-1.33744 5.13223,-1.42014 7.61656,-2.70275 1.47406,-0.87365 2.29287,-2.25197 2.01962,-2.56612 -0.0818,-0.13673 -2.51128,-3.41281 -2.70181,-8.35357 -0.23142,-5.97709 2.7297,-9.58228 2.7297,-9.58228 -1.55956,-0.82905 -4.24,-2.54847 -4.24,-2.54847 0,0 -2.63304,1.78262 -7.32752,1.78262"
       style="display:inline;fill:#fcd719;fill-opacity:1;fill-rule:nonzero;stroke:none;stroke-width:0.929417"
       clip-path="none" />
    <path
       id="path8"
       d="m 109.76488,138.26515 c -1.50473,-2.24268 -1.92389,-5.10437 -2.03635,-6.30423 H 92.967543 c -0.111521,1.19986 -0.531626,4.06155 -2.035423,6.30423 -0.22212,0.30948 0.14498,1.05583 1.710126,1.8923 1.565137,0.8374 4.99747,1.22218 6.776373,2.45736 l 0.928491,0.66826 0.9954,-0.66826 c 1.68875,-1.19337 5.14618,-1.61996 6.71131,-2.45736 1.56514,-0.83647 1.92947,-1.52797 1.71106,-1.8923"
       style="display:inline;fill:#e8412c;fill-opacity:1;fill-rule:nonzero;stroke:none;stroke-width:0.929417"
       clip-path="none" />
    <path
       id="path10"
       d="m 107.70548,131.45922 c 0,9.2e-4 -0.13197,-1.71199 -0.13197,-1.71199 -0.2184,-5.27814 2.03821,-8.62683 2.03821,-8.62683 l -2.18413,-1.38296 c -2.72969,1.04373 -5.21309,1.39134 -7.31078,1.39134 -4.195387,0 -6.848871,-1.39134 -6.848871,-1.39134 l -2.184126,1.38296 c 0,0 2.256621,3.34869 2.038208,8.62683 l -0.131043,1.71199 z"
       style="display:inline;fill:#e8412c;fill-opacity:1;fill-rule:nonzero;stroke:none;stroke-width:0.929417"
       clip-path="none" />
    <path
       id="path12"
       d="m 100.34719,145.5973 -0.10037,-0.10512 c -0.0121,-0.0132 -1.164564,-1.21569 -1.844896,-1.55492 -1.237052,-0.68127 -2.573551,-1.04186 -3.864512,-1.39042 -1.244487,-0.33551 -2.531727,-0.68219 -3.75391,-1.31325 -1.197089,-0.71007 -2.040068,-1.80028 -2.137657,-2.40533 -0.02503,-0.15623 -0.0019,-0.27977 0.06879,-0.36713 0.0074,-0.0105 0.01871,-0.0279 0.03346,-0.0493 0.740742,-1.08465 2.481539,-4.056 2.643259,-8.2272 0.225835,-5.85627 -2.669283,-9.45311 -2.699025,-9.48933 l -0.107806,-0.1312 0.150565,-0.0798 c 1.535396,-0.81695 4.202819,-2.52521 4.229771,-2.54194 l 0.07806,-0.05 0.07622,0.0522 c 0.02503,0.0184 2.617238,1.75847 7.208551,1.75847 4.59875,0 7.22342,-1.74079 7.24944,-1.75847 l 0.0762,-0.0522 0.0771,0.05 c 0.0269,0.0158 2.69438,1.72499 4.22977,2.54194 l 0.15057,0.0798 -0.10781,0.1312 c -0.0288,0.0363 -2.92487,3.63957 -2.69809,9.48933 0.16078,4.1712 1.90158,7.14255 2.64232,8.2272 0.0148,0.0211 0.0261,0.0382 0.0325,0.0493 0.0716,0.0875 0.0948,0.21103 0.0697,0.36621 -0.0976,0.60597 -0.94057,1.69618 -2.13022,2.40159 -1.22962,0.63572 -2.51686,0.9824 -3.76135,1.31791 -1.29189,0.34856 -2.62746,0.70915 -3.85986,1.38763 -0.68498,0.34202 -1.83839,1.54562 -1.85047,1.55771 z M 89.010176,120.65271 c 0.522332,0.71286 2.86539,4.21675 2.659059,9.54232 -0.16358,4.2437 -1.936904,7.26987 -2.691588,8.37401 -0.01581,0.0237 -0.02608,0.039 -0.03067,0.0464 l -0.01396,0.0184 c -0.01475,0.0158 -0.02608,0.064 -0.01212,0.14859 0.07622,0.47399 0.813241,1.50379 1.997317,2.20643 1.188721,0.6134 2.461092,0.95637 3.69164,1.28817 1.307688,0.35224 2.659989,0.71752 3.921205,1.41178 0.604122,0.30205 1.513091,1.19802 1.816081,1.50566 0.30299,-0.30764 1.21289,-1.20361 1.82165,-1.50845 1.25658,-0.69147 2.60888,-1.05675 3.91656,-1.40899 1.23055,-0.3318 2.50292,-0.67477 3.69815,-1.29281 1.17757,-0.698 1.9146,-1.7278 1.99081,-2.20179 0.014,-0.0846 0.003,-0.13199 -0.0121,-0.14859 l -0.014,-0.0211 c -0.005,-0.005 -0.0148,-0.0211 -0.0307,-0.0456 -0.75468,-1.10415 -2.52801,-4.13031 -2.69159,-8.37402 -0.20633,-5.32556 2.13673,-8.82945 2.65906,-9.54231 -1.41085,-0.76492 -3.60055,-2.15439 -4.03087,-2.42857 -0.47586,0.29091 -3.08566,1.75752 -7.32659,1.75752 -4.236279,0 -6.81448,-1.46382 -7.287553,-1.7566 -0.43125,0.2751 -2.620023,1.66273 -4.029947,2.42765"
       style="display:inline;fill:#30302c;fill-opacity:1;fill-rule:nonzero;stroke:none;stroke-width:0.929417"
       clip-path="none" />
    <path
       id="path14"
       d="m 94.313332,137.82952 c 0.05949,0.19891 0.186817,0.56973 0.486085,0.97218 -0.289048,0.11698 -0.417307,0.4712 -0.545568,1.07996 -0.377344,0.068 -0.66918,-0.12909 -0.877368,-0.60782 -0.399648,0.15254 -0.737028,0.0956 -1.006557,-0.16835 0.0446,-0.30389 0.252786,-0.56785 0.601331,-0.79279 -0.118028,-0.43309 -0.0446,-0.75375 0.236084,-0.97308 0.219354,0.37456 0.545568,0.54741 1.106006,0.4898 m 10.684565,-3.67862 c -0.0335,0.0342 -0.0502,0.0622 -0.0279,0.0901 0.0567,0.0511 0.092,0.15702 0.0613,0.23053 -0.0288,0.0882 -0.0604,0.14411 -0.16266,0.22499 -0.0558,0.11908 -0.15428,0.25002 -0.19332,0.25555 -0.04,0 -0.0734,-0.0287 -0.10689,-0.0901 -0.04,-0.0622 -0.13196,-0.10222 -0.24443,-0.10222 -0.22307,0.0105 -0.35504,0.21287 -0.35504,0.21287 0.008,0.16071 0.16638,0.21472 0.31972,0.21656 h 0.22492 c 0.0957,-0.005 0.14592,0.0184 0.14034,0.0735 0,0.0511 -0.0121,0.1283 -0.0846,0.18494 -0.079,0.0559 -0.10038,0.093 -0.10038,0.12646 -0.006,0.0345 -0.0111,0.0846 -0.0111,0.14121 -0.006,0.0669 -0.0521,0.1507 -0.14778,0.13937 -0.0901,-0.0105 -0.15148,-0.0335 -0.20075,-0.0893 -0.0493,-0.0566 -0.13196,-0.11803 -0.26674,-0.11803 -0.13571,-0.0132 -0.23235,0.0298 -0.33459,0.0211 -0.0976,0.0105 -0.10968,0.12461 -0.13848,0.186 -0.1013,0.44519 0.24536,0.94987 0.27232,1.00469 -0.0697,0.039 -0.80487,-0.36059 -1.22311,-0.59668 -0.0595,-0.0382 -0.19053,-0.0901 -0.26024,0.005 -0.0232,0.0316 -0.003,0.12093 0.007,0.18416 -0.0586,-0.0437 -0.5465,-0.43404 -0.58089,-0.44334 -0.11618,-0.0371 -0.17844,0.16176 -0.21377,0.23052 -0.014,-0.0158 -0.40801,-0.48795 -0.4963,-0.5149 -0.11524,-0.0353 -0.40244,0.23421 -0.42382,0.24712 -0.009,-0.11697 -0.0799,-0.29091 -0.15986,-0.30484 -0.10689,-0.003 -1.130174,0.35595 -1.26401,0.40801 0.151487,-0.30021 1.12088,-1.05954 1.12088,-1.05954 0,0 -0.600409,0.24633 -0.969385,0.44055 0.191454,-0.5056 1.346725,-1.40156 1.346725,-1.40156 0,0 -0.42939,0.18784 -0.773278,0.38941 0.185895,-0.53811 1.289098,-1.21195 1.289098,-1.21195 0,0 -0.69148,0.26583 -0.87365,0.32624 0.24164,-0.44242 0.92384,-0.75378 0.96195,-0.76679 0.0372,-0.0132 0.7361,-0.3578 0.87086,-0.35132 0.0567,-0.002 0.58089,0.22947 0.64687,0.28069 0.066,0.0511 0.26117,0.25845 0.41266,0.29278 0.2398,0.0184 0.30113,0.0632 0.4201,0.11328 0.11803,0.0511 0.26953,0.13489 0.44333,0.25924 0.16358,0.12356 0.34389,0.16835 0.52884,0.13489 0.0902,-0.0158 0.21377,0 0.36619,0.0503 0.14593,0.0456 0.23608,0.11803 0.28068,0.21367 0.039,0.0901 0.039,0.1636 0.006,0.22499 -0.0446,0.0566 -0.079,0.10696 -0.10689,0.14042 m -3.46765,-0.11697 c 0.002,-0.0725 0.15149,-0.19891 0.25466,-0.24528 0.0455,-0.0184 0.22212,-0.0105 0.36619,0.068 0.13291,0.0735 0.21377,0.0754 0.26767,0.0614 0.0688,-0.0211 0.16637,-0.0456 0.28162,-0.0735 l -9.3e-4,-0.0132 c -0.21657,0 -0.39687,-0.0427 -0.53535,-0.12725 -0.14964,-0.0875 -0.28533,-0.1291 -0.41452,-0.1291 -0.24072,0.005 -0.30671,0.186 -0.35968,0.33088 -0.009,0.0264 -0.0176,0.0493 -0.0279,0.0754 0.0195,0.26583 0.25745,0.43496 0.62085,0.44055 0.003,0 0.4108,-0.0382 0.58553,-0.17283 l 0.0148,-0.0132 -0.0187,-9.2e-4 c -0.0363,-0.002 -0.092,0.002 -0.15707,0.005 -0.092,0.005 -0.20075,0.0132 -0.28998,0.005 -0.11898,-0.008 -0.51768,-0.005 -0.58739,-0.21288 m 2.3161,-0.44985 h -0.20726 l -0.002,0.005 c -0.0502,0.10038 -0.13012,0.14964 -0.24259,0.14964 -0.10968,0 -0.15799,0.0717 -0.15986,0.0743 l -0.004,0.005 0.005,0.005 c 0.002,9.4e-4 0.15799,0.14411 0.34853,0.14411 h 0.004 z m 1.12088,4.42773 c 0.10409,0 0.1924,-0.41357 0.1924,-0.41357 0,0 0.47772,0.22499 0.53999,-0.12831 -0.0148,-0.34017 -0.76398,-0.24633 -0.76398,-0.24633 -0.19053,-0.10512 -0.48422,-0.0427 -0.51768,-0.0105 -0.04,0.0342 -0.15244,0.14411 -0.27046,0.31879 -0.079,0.11328 -0.26488,0.15438 -0.38013,0.12092 0,0 -0.27418,-0.0835 -0.28533,-0.078 0.0187,0.0456 0.16358,0.41639 0.15894,0.46563 0.005,0.0306 -0.0187,0.0827 -0.0846,0.0846 -0.066,0.003 -0.13663,-0.0132 -0.45727,-0.19417 -0.12641,-0.0698 -0.30671,-0.16914 -0.32808,-0.15886 -0.0224,0.0105 0.0307,0.11697 0.0567,0.17573 0.0604,0.14226 0.092,0.2184 0.0706,0.26393 -0.007,0.0158 -0.0206,0.0263 -0.0362,0.0308 -0.005,0.002 -0.009,0.003 -0.0158,0.003 -0.0502,0 -0.15149,-0.064 -0.51583,-0.31878 -0.22863,-0.15886 -0.55207,-0.40058 -0.63572,-0.41265 -0.0372,0.0237 -0.13012,0.16835 -0.13012,0.16835 0,0 -0.11524,0.17941 -0.17752,0.14674 -0.04,-0.0184 -0.11524,-0.10327 -0.25466,-0.26293 -0.14593,-0.16834 -0.36712,-0.42195 -0.44983,-0.44703 -0.0809,-0.0237 -0.20634,0.0651 -0.32716,0.15149 -0.15799,0.11329 -0.33366,0.2408 -0.449835,0.13937 -0.05206,-0.0585 -0.0446,-0.10407 -0.03438,-0.21577 0.0055,-0.0585 0.02608,-0.13015 -0.0019,-0.18574 -0.06041,-0.0856 -0.234213,-0.0382 -0.405225,-0.0324 -0.229576,0.005 -0.530697,-0.0132 -0.740745,-0.0706 0.08272,0.22499 0.135706,0.42195 0.05111,0.49074 -0.431249,0.51303 -1.096711,0.59017 -1.985231,0.23316 -0.488873,-0.12541 -0.82811,-0.60506 -0.937782,-0.77978 -0.04832,-0.0717 -0.193324,-0.44703 -0.179387,-0.68962 0.0055,-0.14596 0.03346,-0.27511 0.08457,-0.38199 0.05019,-0.10696 0.136629,-0.18126 0.265812,-0.18126 0.08457,-0.005 0.22212,0.0603 0.306708,0.16361 0.280684,0.35224 -0.101299,0.88479 -0.365261,1.02234 0.03159,0.0464 0.384778,0.55487 0.801158,0.71565 0.0019,-0.0761 0.01765,-0.13383 0.04276,-0.17282 0.427529,-0.66267 0.498165,-1.16269 0.384778,-1.62369 -0.05762,-0.27973 -0.487015,-0.80952 -1.091137,-0.81882 -0.604119,-0.0105 -0.974027,0.18126 -1.308617,0.69057 -0.426602,0.78163 -0.539061,1.52982 -0.3318,2.23246 v 0 c 0.066,0.21181 0.224913,0.61806 0.55579,1.03164 0.170088,0.19706 0.439615,0.51769 0.516755,0.54093 -0.03254,-0.11434 -0.06876,-0.32437 -0.04276,-0.46843 0.09853,0.26767 0.141265,0.53163 0.55672,0.8021 0,0 -0.01107,-0.16361 -0.0166,-0.38294 0.06505,0.21656 0.376414,0.61249 0.781639,0.80952 0,0 -0.117106,-0.28624 -0.141265,-0.45725 0.06133,0.10222 0.512109,0.55299 0.928486,0.71563 0,0 -0.138472,-0.31786 -0.187739,-0.50745 0.08457,0.1831 0.440544,0.53627 0.834615,0.60877 0,0 -0.03997,-0.30764 -0.08923,-0.41731 0.210976,0.19996 0.578097,0.47957 0.977745,0.40058 0,0 -0.186817,-0.24896 -0.242591,-0.38293 0.126407,0.14121 0.686839,0.39966 1.024217,0.24264 0,0 -0.234213,-0.10591 -0.353177,-0.30021 0.11247,0.14042 0.648729,0.22025 0.876439,0.14306 0,0 -0.18495,-0.14859 -0.32902,-0.27418 0.34946,0.13094 0.60412,0.0967 0.60412,0.0967 l 0.41267,-0.0419 c 0,0 0.30113,0.0287 0.52604,0.0735 0.21936,0.0511 2.15439,0.55115 2.18692,0.55951 0.7426,0.16834 0.22958,-0.28533 0.42195,-0.22763 0.0166,0.005 0.17939,0.0595 0.24536,0.005 0.0456,-0.0184 0.0716,-0.0754 0.0716,-0.14227 0,-0.0263 -0.0242,-0.13094 -0.0623,-0.19232 -0.0335,-0.0622 -0.24631,-0.35967 -0.96567,-0.57903 -0.3002,0.0996 -0.66825,-0.0316 -0.81231,-0.11618 -0.14685,-0.0956 -0.25373,-0.21366 -0.30392,-0.35411 0.51676,0.0158 0.93314,-0.0622 1.24821,-0.23053 0.31507,-0.16914 0.57345,-0.25291 0.77048,-0.25291 0.19146,0 0.3095,0.0279 0.35969,0.0838 0.0344,0.0511 0.0846,0.0901 0.14685,0.1291 0.15799,0.0956 0.33645,0.0817 0.43218,0.005 0.0715,-0.0698 0.12453,-0.22499 0.12453,-0.22499 -0.32808,-0.0105 -0.51954,-0.38107 -0.51954,-0.38107 0,0 -0.32251,0.0985 -0.35504,-0.0211 -0.0558,-0.19417 0.22212,-0.0883 0.32437,-0.0883 m -0.39407,1.89322 c 0.0187,-0.0382 0.0232,-0.0827 0.0213,-0.10775 0,-0.16914 -0.0957,-0.29834 -0.28626,-0.3764 0,0 -0.2844,-0.0975 -0.34017,-0.0975 -0.0493,0 -0.16917,0.0501 -0.25279,0.0772 0.36712,0.0809 0.74818,0.26954 0.85785,0.50468 m 1.81144,-2.48247 -0.16917,0.22209 -1.14783,-0.73146 0.14777,-0.23342 z m 0.2026,-2.25569 0.69148,-0.28625 0.0166,0.68033 -1.16921,1.52981 -0.15149,-0.0956 0.4833,-0.86066 -0.65245,0.75933 -0.18589,-0.11803 z m -0.79744,2.41184 c 0,0 -0.008,0.18205 -0.20263,0.17467 -0.0939,0 -0.31879,-0.0269 -0.27139,9.5e-4 0.0465,0.0279 0.51211,0.23052 0.57531,0.22394 0.0632,-0.008 0.25002,-0.039 0.14314,-0.26214 z m -0.55858,0.25292 c -0.027,0.0911 -0.11524,0.20444 -0.11524,0.20444 0,0 0.12174,0.093 0.16822,0.17204 0.04,0.0603 0.13476,0.186 0.31321,0.1665 0.26209,-0.0558 0.23421,-0.28906 0.23421,-0.28906 -0.20634,0.0105 -0.5846,-0.23685 -0.6004,-0.25371 m -2.7072,-0.81105 c 0.004,0.0445 0.0511,0.32903 -0.006,0.36433 -0.0604,0.0419 -0.065,0.039 -0.53813,-0.31414 -0.13942,-0.10407 -0.32529,-0.24265 -0.3885,-0.28161 -0.0147,0.0158 -0.16078,0.28903 -0.23421,0.28532 -0.0502,-0.003 -0.0818,-0.0382 -0.20726,-0.18495 -0.0177,-0.0211 -0.38385,-0.42659 -0.44612,-0.44519 -0.0502,-0.0158 -0.26116,0.13489 -0.28161,0.14859 -0.28069,0.20181 -0.33831,0.14227 -0.36526,0.11434 -0.0437,-0.0445 -0.0269,-0.37734 -0.07622,-0.38477 -0.0818,-0.0211 -0.996334,0.1088 -0.996334,0.1088 l -0.254658,0.24897 c 0,0 -0.02882,0.0287 -0.02055,0.0493 0.05762,0.0883 1.182216,0.0464 1.221253,0.0743 0.04647,0 0.118979,0.15333 0.106889,0.27789 -0.004,0.0493 -0.0242,0.13279 -0.003,0.15518 0.0539,0.0761 0.56787,-0.36713 0.68777,-0.32995 0.0976,0.0287 0.25652,0.21366 0.48051,0.47122 0.0855,0.0975 0.19796,0.2184 0.22119,0.22025 0.0232,9.2e-4 0.20727,-0.32716 0.27139,-0.30301 0.0669,0.0132 0.9415,0.70544 0.97217,0.68499 0.0129,-0.008 -0.0995,-0.3225 -0.0623,-0.37361 0.0372,-0.0511 0.14777,-0.0335 0.22958,0.008 0.0576,0.0158 0.48329,0.31507 0.5372,0.26859 0.0837,-0.0558 -0.15149,-0.45449 -0.15149,-0.45449 -0.009,-0.005 -0.68219,-0.40986 -0.69706,-0.40801 m -3.229723,-0.76397 c 0.09108,-0.0105 0.637581,-0.11909 0.753763,-0.0651 0.1171,0.054 0.14221,0.38201 0.14126,0.38852 0.0335,-0.0184 0.42382,-0.303 0.55486,-0.26214 0.10781,0.0324 0.58089,0.56601 0.60412,0.59112 0.003,-0.005 0.158,-0.29278 0.26025,-0.25845 0.1013,0.0287 0.7017,0.49443 0.78256,0.55299 -0.0224,-0.0996 -0.0372,-0.17388 0.0187,-0.25291 0.0567,-0.0798 0.16917,-0.0659 0.28626,-0.005 0.0985,0.0651 0.47772,0.34668 0.77792,0.42195 0.13568,0.0419 0.316,-0.16361 0.36154,-0.25081 -0.14034,-0.0316 -0.60783,-0.21841 -0.7965,-0.33088 -0.13105,-0.0669 -0.71194,-0.40056 -0.72495,-0.4043 0.007,0.0371 0.0177,0.0919 0.0242,0.11803 0.0224,0.079 0.0111,0.12909 -0.0456,0.1644 -0.0576,0.0408 -0.65803,-0.44427 -0.71658,-0.48236 -0.0129,0.0132 -0.11247,0.22393 -0.18311,0.22025 -0.0474,-0.003 -0.52047,-0.51585 -0.56694,-0.52979 -0.0335,-0.0105 -0.38292,0.31043 -0.48701,0.22499 -0.0409,-0.0427 -0.0818,-0.29275 -0.11619,-0.29091 -0.0874,0.0105 -1.00563,0.3783 -1.218466,0.43405 0.03625,0.0558 0.214691,0.0263 0.289979,0.0158 m 2.903497,-11.09537 h -0.8783 v 0.59296 h -0.51304 v -0.59296 h -0.92384 v 0.59296 h -0.526049 v -0.59296 h -0.865286 v 1.39039 h 3.706515 z m -0.88387,1.56419 h -0.87923 -1.211032 v 0.19997 l -0.119899,0.49166 h 1.330921 0.87923 0.28533 l -0.10037,-0.49166 v -0.19997 z m -2.675794,1.646 h 3.446274 l -0.41916,-0.7807 h -2.601442 z m -1.14597,2.63025 h 1.665514 v -0.61249 h -1.665514 z m 2.868184,-7.85915 0.47214,-0.15254 c 0,0 0.0103,-0.0427 0.0103,-0.0996 0,-0.23316 -0.16729,-0.42754 -0.38942,-0.46935 v -0.26859 h 0.15336 v -0.19996 h -0.15336 v -0.17283 h -0.20634 v 0.17283 h -0.15244 v 0.19996 h 0.15244 v 0.2751 c -0.20634,0.053 -0.359688,0.23975 -0.359688,0.46284 0,0.0493 0.01291,0.0967 0.01291,0.0967 z m -1.20546,1.22776 0.0047,0.33367 c 0.340167,-0.0614 1.19245,-0.0901 1.21847,-0.0901 0.0269,0 0.83926,0.0184 1.23055,0.0901 l -0.006,-0.32716 0.35969,-0.45262 c 0.27325,-0.39964 0.2398,-0.68591 -0.0799,-0.87178 -0.23235,-0.13937 -0.59855,-0.11328 -1.11716,0.0864 -0.12733,0.04 -0.27418,0.0996 -0.41359,0.15333 -0.13292,-0.0603 -0.24536,-0.11988 -0.365268,-0.16624 -0.512107,-0.18679 -0.878298,-0.21288 -1.111581,-0.0798 -0.366189,0.20629 -0.385708,0.49258 -0.07343,0.87178 z m 2.09491,-0.9294 0.19053,0.45634 -0.19053,0.45728 -0.19984,-0.45728 z m -0.88945,-0.0511 0.25186,0.58461 -0.25186,0.59297 -0.24257,-0.59297 z m -0.826257,0.0482 0.199832,0.45541 -0.199832,0.46471 -0.198909,-0.46471 z m -0.437756,1.41734 v 0.18416 h 2.537313 v -0.18416 c -0.8876,-0.12646 -1.55585,-0.14121 -2.537313,0 m -1.604171,5.36274 h 1.665514 v -0.72493 h -1.665514 z m 4.065264,0.78349 h 1.646 v -0.61248 h -1.646 z m -0.73052,0 h 0.56602 v -0.61248 h -0.56602 z m 0.27232,-1.94713 -0.35225,0.5716 c 0.0771,0.0948 0.0809,0.17941 0.0799,0.29183 v 0.28627 h 0.56601 v -0.698 c 0,-0.16993 -0.16266,-0.35317 -0.2937,-0.4517 m -0.97774,-0.43309 c 0.27975,-0.0735 0.54557,-0.0401 0.79837,0.093 0.25932,0.13383 0.49723,0.34014 0.63758,0.60597 h 1.55863 l -0.92477,-0.77793 h -3.713022 l -0.885733,0.77793 h 1.566065 c 0.07714,-0.12277 0.177517,-0.21946 0.244435,-0.29928 0.198883,-0.20629 0.446119,-0.33923 0.718435,-0.39964 m 1.43595,1.59673 h 1.646 v -0.72493 h -1.646 z m -1.38297,-1.43687 c -0.15986,0.0335 -0.305777,0.0864 -0.419166,0.15992 l 0.372696,0.55856 c 0.15336,-0.093 0.29927,-0.093 0.45913,0 l 0.36619,-0.56507 c -0.25281,-0.15333 -0.5121,-0.20628 -0.77885,-0.15333 m -0.85785,2.22036 h 0.552073 v -0.61248 H 99.31557 Z m 0.77235,-1.24912 c -0.0474,0.04 -0.0669,0.10037 -0.0669,0.16624 v 1.09113 h 0.66546 v -1.09113 c 0,-0.0595 -0.0206,-0.1125 -0.0595,-0.16624 -0.18031,-0.19233 -0.35968,-0.19233 -0.53906,0 m -0.479579,-0.69801 c -0.131043,0.0985 -0.292766,0.28164 -0.292766,0.4517 v 0.698 h 0.566012 v -0.28627 c -0.0019,-0.1125 0.0029,-0.19707 0.07993,-0.29183 z m -1.095782,-15.23218 c -0.209132,0.0184 -0.955441,0.72587 -1.258429,0.89224 v 0.003 c 0.31786,0.13673 1.129241,0.76771 1.338359,0.76679 0.210054,0 1.038156,-0.79651 1.260287,-0.89133 l -9.3e-4,-0.003 c -0.229576,-0.0735 -1.130168,-0.78629 -1.339287,-0.76677 m 0.06971,1.14875 c -0.168217,0.0158 -0.31786,-0.1088 -0.33366,-0.27697 -0.01581,-0.16914 0.108729,-0.31878 0.276967,-0.33459 0.169165,-0.0158 0.31786,0.10881 0.334589,0.27792 0.01475,0.16835 -0.108728,0.31786 -0.277896,0.33364 m -4.051324,-0.3736 c -0.196117,0.0735 -0.735168,0.94799 -0.985183,1.18779 l 9.3e-4,0.003 c 0.342025,0.0493 1.289101,0.44985 1.491712,0.395 0.202625,-0.0548 0.796511,-1.03816 0.986113,-1.18685 l -9.3e-4,-0.003 c -0.24072,-0.0105 -1.295605,-0.46751 -1.492642,-0.395 m 0.365259,1.09205 c -0.158917,0.0585 -0.335517,-0.0237 -0.395001,-0.18126 -0.05854,-0.15992 0.02319,-0.33551 0.182154,-0.395 0.158917,-0.0585 0.33459,0.0237 0.394073,0.18205 0.05857,0.15807 -0.02318,0.33459 -0.181231,0.39408 m 6.065371,-1.09856 v 0.003 c 0.2212,0.0948 1.05024,0.8913 1.25936,0.8913 0.21005,9.2e-4 1.0205,-0.63013 1.33929,-0.76676 v -0.003 c -0.30392,-0.1665 -1.05024,-0.87272 -1.25936,-0.89225 -0.20818,-0.0184 -1.10972,0.69337 -1.33929,0.76679 m 1.60325,0.10407 c -0.0158,0.16914 -0.16451,0.29275 -0.33366,0.27789 -0.16822,-0.0158 -0.29277,-0.16545 -0.27697,-0.33459 0.0158,-0.16835 0.1645,-0.29278 0.33366,-0.27697 0.16822,0.0158 0.29276,0.16545 0.27697,0.33367 m 3.59776,-0.0956 c -0.19704,-0.0725 -1.25192,0.38386 -1.49264,0.395 l -9.3e-4,0.003 c 0.18961,0.14859 0.78443,1.13205 0.98704,1.18687 0.20168,0.0548 1.14876,-0.34573 1.49079,-0.395 l 9.3e-4,-0.003 c -0.25002,-0.23975 -0.78908,-1.11529 -0.98519,-1.1878 m 0.0297,0.91082 c -0.0595,0.15808 -0.23514,0.23975 -0.39407,0.18126 -0.15895,-0.0595 -0.2398,-0.23605 -0.18218,-0.39502 0.0595,-0.15808 0.23608,-0.23975 0.39407,-0.18126 0.15894,0.0585 0.24072,0.23526 0.18215,0.395"
       style="display:inline;fill:#fcd719;fill-opacity:1;fill-rule:nonzero;stroke:none;stroke-width:0.929417"
       clip-path="none" />
    <path
       id="path16"
       d="m 100.3589,113.04079 c 4.9445,0 9.57392,1.83561 8.91124,2.71205 -0.0613,0.10406 -0.15891,0.14859 -0.28997,0.14859 -0.0613,0 -0.1292,-0.0105 -0.20355,-0.0269 l -0.93592,2.02147 c 0,0 -3.74183,-1.68504 -7.47529,-1.68504 -3.733468,0 -7.511543,1.68504 -7.511543,1.68504 l -0.934994,-2.02147 c -0.07435,0.0184 -0.142187,0.0269 -0.203546,0.0269 -0.131044,0 -0.228628,-0.0445 -0.289979,-0.14859 -0.662672,-0.87644 3.966749,-2.71205 8.911242,-2.71205 z m 0,-0.27881 h -0.0224 c -4.269738,0 -8.616615,1.38388 -9.18077,2.51685 -0.109677,0.22025 -0.09574,0.44332 0.03717,0.62921 0.07993,0.12725 0.234213,0.27231 0.522332,0.27231 0.01291,0 0.02503,0 0.0381,-9.2e-4 l 0.847626,1.83373 0.115236,0.25003 0.250943,-0.1125 c 0.03717,-0.0158 3.770642,-1.66178 7.398153,-1.66178 3.62751,0 7.32473,1.64413 7.36097,1.66086 l 0.25187,0.11328 0.11526,-0.25002 0.84856,-1.83373 c 0.0129,9.2e-4 0.025,9.2e-4 0.0381,9.2e-4 0.28812,0 0.4424,-0.1449 0.52233,-0.27231 0.13292,-0.186 0.14685,-0.40894 0.0372,-0.62921 -0.56416,-1.13297 -4.91104,-2.51686 -9.18078,-2.51686"
       style="display:inline;fill:#30302c;fill-opacity:1;fill-rule:nonzero;stroke:none;stroke-width:0.929417"
       clip-path="none" />
    <path
       id="path18"
       d="m 109.40426,115.17827 -0.14034,-0.13015 c -0.8625,-0.80394 -2.97321,-1.4508 -4.66103,-1.78726 -0.0206,-0.005 -1.91459,-0.40151 -4.17586,-0.40151 -2.262201,0 -4.314353,0.39779 -4.3348,0.40151 -1.686888,0.33646 -3.798524,0.98332 -4.66102,1.78726 l -0.140344,0.13015 -1.681313,-3.59871 -0.834615,0.35877 -0.829039,-1.76682 3.617287,-1.55307 0.724945,1.81144 -0.63758,0.27418 0.605979,1.42573 c 0.549285,-0.2574 1.953632,-0.6255 2.415553,-0.74353 l -0.291836,-1.4787 -0.881088,0.17098 -0.434967,-1.90345 3.865442,-0.74819 0.322508,1.92389 -0.750969,0.14596 0.280683,1.40715 c 0.826253,-0.18205 1.545621,-0.22131 2.014047,-0.22131 0.203546,0 0.363401,0.008 0.471213,0.0132 l 0.01581,-1.32538 h -0.877368 l -0.06505,-1.94989 h 4.014142 l -0.065,1.94989 h -0.87647 l 0.0158,1.32538 c 0.10688,-0.005 0.26674,-0.0132 0.47028,-0.0132 0.46843,0 1.1878,0.039 2.01405,0.22131 l 0.28161,-1.40715 -0.7519,-0.14596 0.32344,-1.92389 3.86451,0.74819 -0.43497,1.90345 -0.88108,-0.17098 -0.29184,1.4787 c 0.46192,0.11803 1.86627,0.48608 2.41648,0.74353 l 0.60505,-1.42573 -0.63665,-0.27418 0.72402,-1.81144 3.61728,1.55307 -0.82903,1.76682 -0.83462,-0.35877 z m -19.656221,-3.96118 1.636702,3.50297 c 0.974958,-0.78536 3.013166,-1.40527 4.653586,-1.73243 0.02134,-0.003 2.098621,-0.40615 4.388703,-0.40615 2.29194,0 4.21304,0.40243 4.23163,0.40709 1.63856,0.32622 3.67677,0.94613 4.65173,1.73149 l 1.6367,-3.50297 0.83554,0.35875 0.59204,-1.26214 -3.08938,-1.32627 -0.51768,1.29373 0.64223,0.27605 -0.83927,1.97688 -0.14034,-0.093 c -0.32623,-0.21736 -1.98988,-0.6636 -2.6033,-0.81696 l -0.12825,-0.0316 0.39686,-2.01125 0.88945,0.17203 0.31043,-1.3588 -3.30222,-0.63946 -0.23049,1.37461 0.76026,0.14674 -0.39314,1.96386 -0.14035,-0.0335 c -0.85785,-0.2026 -1.60975,-0.24528 -2.09025,-0.24528 -0.36713,0 -0.59018,0.0263 -0.59204,0.0263 l -0.15336,0.0184 -0.0232,-1.9109 h 0.88946 l 0.0465,-1.39319 h -3.43791 l 0.04647,1.39319 h 0.88945 l -0.02318,1.9109 -0.153358,-0.0184 c -0.0019,0 -0.223991,-0.0263 -0.592037,-0.0263 -0.47958,0 -1.231477,0.0427 -2.090258,0.24528 l -0.140344,0.0335 -0.393143,-1.96386 0.760262,-0.14674 -0.230498,-1.37461 -3.301284,0.63946 0.310425,1.3588 0.889451,-0.17203 0.39686,2.01125 -0.129199,0.0316 c -0.613414,0.15334 -2.277071,0.59947 -2.603296,0.81696 l -0.139421,0.093 -0.840192,-1.97688 0.643155,-0.27605 -0.517684,-1.29373 -3.090308,1.32627 0.592037,1.26214 z"
       style="display:inline;fill:#30302c;fill-opacity:1;fill-rule:nonzero;stroke:none;stroke-width:0.929417"
       clip-path="none" />
    <path
       id="path20"
       d="m 126.34687,160.23431 v -0.003 -0.0132 -0.003 -0.0132 -0.0105 -0.0158 -0.0158 -0.0132 -0.0211 -0.0132 -0.0298 -0.0132 -0.0353 -0.0158 -0.0401 -0.0132 -0.0456 -0.0132 -0.0511 -0.0132 -0.0559 -0.0132 -0.0614 -0.0132 -0.0661 -0.0132 -0.0706 -0.0132 -0.0753 -0.0132 -0.0798 -0.0132 -0.0817 -0.0105 -0.0864 -0.0105 -0.0893 -0.0105 -0.0919 -0.0105 -0.0949 -0.0105 -0.0967 -0.0105 -0.10038 -0.0105 -0.10327 -0.0105 -0.10328 -0.0105 -0.10696 -0.008 -0.10697 -0.008 -0.10881 -0.008 -0.1096 -0.008 -0.11065 -0.008 -0.11065 -0.005 -0.11144 -0.008 -0.11066 -0.005 -0.11249 -0.005 -0.1125 -0.005 -0.11065 -0.005 -0.10959 -0.005 -0.10881 -0.003 -0.10775 -0.005 -0.10591 -0.003 -0.10512 -0.003 -0.10116 -0.003 -0.10038 -0.003 -0.0975 -0.003 -0.0956 -0.003 -0.0912 -0.003 -0.0883 -0.002 -0.0854 -9.5e-4 -0.0817 -0.002 -0.0761 -0.002 -0.0735 -0.002 -0.0688 -9.2e-4 -0.064 -0.0603 -0.0548 -9.3e-4 -0.0474 -0.0427 -0.002 -0.0364 -9.4e-4 -0.0316 -0.0237 -0.0184 -0.0105 -0.003 h -0.003 -0.005 -0.005 -0.006 -0.007 -0.003 -0.007 -0.0111 -0.003 -0.009 -0.0121 -0.006 -0.0103 -0.0148 -0.009 -0.006 -0.0158 -0.0169 -0.003 -0.0187 -0.0213 -0.002 -0.0177 -0.0195 -0.0111 -0.0121 -0.0242 -0.0177 -0.005 -0.025 -0.0232 -0.005 -0.0187 -0.0269 -0.0166 -0.007 -0.0261 -0.0261 -0.008 -0.0158 -0.0279 -0.025 -0.002 -0.0232 -0.0261 -0.0242 -0.002 -0.0242 -0.0269 -0.0242 -9.3e-4 -0.0242 -0.0232 -0.025 -0.007 -0.0176 -0.0213 -0.0224 -0.0224 -0.002 -0.0195 -0.0195 -0.0213 -0.0187 -0.007 -0.009 -0.0166 -0.0166 -0.0148 -0.0158 -0.0111 -0.005 -0.008 -0.0121 -0.007 -0.008 -0.006 -0.007 -0.002 -0.003 l 0.0539,3.62287 -2.10048,-3.62287 h -9.3e-4 -0.004 -0.003 -0.007 -0.008 -0.0121 -0.0111 -0.0111 -0.0187 -0.0148 -0.0166 -0.0195 -0.003 -0.0148 -0.0224 -0.0232 -0.0232 -0.014 -0.0111 -0.025 -0.0261 -0.0269 -0.002 -0.0242 -0.0298 -0.0316 -0.005 -0.0224 -0.0307 -0.0307 -0.002 -0.0297 -0.0297 -0.0242 -0.009 -0.0325 -0.0297 -0.0103 -0.0206 -0.0344 -0.0224 -0.0103 -0.0307 -0.0316 -0.002 -0.0307 -0.0307 -0.008 -0.0213 -0.0307 -0.0158 -0.0148 -0.0269 -0.0195 -0.0103 -0.0288 -0.0177 -0.009 -0.025 -0.0187 -0.005 -0.027 -0.0195 -0.005 -0.0195 -0.0166 -0.007 -0.0195 -0.0148 -0.005 -0.0158 -0.014 -0.004 -0.0148 -0.008 -0.005 -0.0121 -0.005 -0.007 -0.007 -0.003 -0.006 -0.003 -0.002 -0.002 -9.3e-4 v 0.003 0.0105 0.0184 0.0237 0.0316 9.4e-4 0.0364 0.002 0.0427 0.0474 9.3e-4 0.0548 0.0603 0.064 9.2e-4 0.0688 0.002 0.0735 0.002 0.0761 0.002 0.0817 9.5e-4 0.0854 0.002 0.0883 0.003 0.0912 0.003 0.0956 0.003 0.0975 0.003 0.10038 0.003 0.10116 0.003 0.10512 0.003 0.10591 0.005 0.10775 0.003 0.10881 0.005 0.10959 0.005 0.11065 0.005 0.1125 0.005 0.11249 0.005 0.11066 0.008 0.11144 0.005 0.11065 0.008 0.11065 0.008 0.1096 0.008 0.10881 0.008 0.10697 0.008 0.10696 0.0105 0.10328 0.0105 0.10327 0.0105 0.10038 0.0105 0.0967 0.0105 0.0949 0.0105 0.0919 0.0105 0.0893 0.0105 0.0864 0.0105 0.0817 0.0132 0.0798 0.0132 0.0753 0.0132 0.0706 0.0132 0.0661 0.0132 0.0614 0.0132 0.0559 0.0132 0.0511 0.0132 0.0456 0.0132 0.0401 0.0158 0.0353 0.0132 0.0298 0.0132 0.0211 0.0132 0.0158 0.0158 0.0105 0.0132 0.003 0.0132 0.003 h 1.10229 l -0.0446,-3.81432 2.20551,3.81432 z m -4.91661,-7.51804 h 1.35881 v -0.82997 h -1.44525 l -0.0874,-0.0158 h -0.0864 l -0.14498,-0.0269 -0.17288,-0.0445 -0.0576,-0.0287 -0.0864,-0.0595 -0.0576,-0.0287 -0.0437,-0.0437 -0.0288,-0.0445 -0.0428,-0.0287 -0.0297,-0.0287 -0.0158,-0.0437 -0.0279,-0.0298 -0.0129,-0.0279 -0.0307,-0.0875 -0.014,-0.0287 -0.0148,-0.0437 v -0.0603 l -0.0158,-0.0577 v -0.0577 l -0.014,-0.0735 v -3.3366 h -1.08277 v 3.13213 l 0.014,0.14675 v 0.11618 l 0.0147,0.13015 0.0148,0.10406 0.0129,0.10222 0.0288,0.10117 0.0148,0.0864 0.0307,0.0735 0.0418,0.0883 0.0288,0.0735 0.0864,0.14411 0.11618,0.14596 0.20168,0.20365 0.0734,0.0445 0.0855,0.0566 0.0725,0.0585 0.0874,0.0437 0.0734,0.0306 0.1292,0.0427 0.0576,0.0158 0.0437,0.0132 0.0567,0.0158 0.1171,0.0158 0.26024,0.0298 0.158,0.0132 z m -1.99917,2.4044 -0.28998,-0.0298 h -0.002 -0.003 -0.002 -0.003 -0.006 -0.007 -0.005 -0.007 -0.008 -0.007 -0.0103 -0.009 -0.009 -0.0121 -0.0111 -0.009 -0.014 -0.0111 -0.014 -0.0111 -0.0148 -0.0121 -0.0121 -0.004 -0.0129 -0.0121 -0.0166 -0.014 -0.0148 -0.0148 -0.0158 -0.0148 -0.0158 -0.014 -0.014 -0.0148 -0.0166 -0.014 -0.0121 -0.0166 -0.003 -0.0111 -0.0121 -0.0129 -0.014 -0.0111 -0.0129 -0.0129 -0.0111 -0.0103 -0.0103 -0.009 -0.0103 -0.0103 -0.009 -0.006 -0.008 -0.006 -0.005 -0.005 -0.003 -0.005 -0.004 -0.002 l -0.28905,0.0298 -0.14498,0.0298 -0.26117,0.0577 -0.11523,0.0445 -0.11527,0.0287 -0.11618,0.0577 -0.0595,0.0158 -0.0428,0.0298 -0.0567,0.0287 -0.0437,0.0287 -0.0576,0.0298 -0.0437,0.0298 -0.0465,0.0437 -0.0846,0.0585 -0.0446,0.0427 -0.0437,0.0298 -0.0883,0.0875 -0.0261,0.0445 -0.0437,0.0427 -0.0288,0.0445 -0.0446,0.0437 -0.0279,0.0445 -0.0316,0.0437 -0.0261,0.0577 -0.0297,0.0437 -0.0297,0.0585 -0.0288,0.0445 -0.0307,0.0585 -0.0129,0.0577 -0.0298,0.0585 -0.014,0.0585 -0.0279,0.0585 -0.0288,0.11619 -0.0455,0.13199 -0.014,0.13093 -0.0288,0.14596 -0.014,0.1478 -0.0147,0.1449 v 0.16176 l -0.0158,0.15992 0.0158,0.15992 v 0.17572 l 0.0147,0.14675 0.014,0.16071 0.0288,0.14595 0.014,0.13094 0.0288,0.14596 0.0456,0.13199 0.014,0.0577 0.0279,0.0603 0.0169,0.0577 0.0855,0.17467 0.0121,0.0577 0.0325,0.0445 0.0288,0.0577 0.0437,0.0445 0.0279,0.0445 0.0288,0.0577 0.0307,0.0445 0.0409,0.0427 0.0297,0.0456 0.0446,0.0419 0.0446,0.0298 0.0846,0.0883 0.0864,0.0577 0.0446,0.0445 0.0428,0.0287 0.0585,0.0287 0.0437,0.0306 0.0576,0.0287 0.0456,0.0287 0.0548,0.0287 0.0585,0.0158 0.0595,0.0298 0.0567,0.0132 0.0585,0.0306 0.0595,0.0132 0.0706,0.0132 0.0604,0.0306 0.0586,0.0132 0.14219,0.0306 0.13105,0.0132 0.14498,0.0158 0.31971,0.0287 h 0.002 9.3e-4 0.005 9.3e-4 0.002 0.003 0.004 0.003 0.005 0.005 0.005 0.005 0.005 0.006 0.007 0.005 0.007 0.006 0.007 0.009 0.007 0.005 0.008 0.007 0.007 0.007 0.007 0.007 0.007 0.008 0.007 0.007 0.009 0.007 0.007 0.008 0.007 0.006 0.007 0.007 0.007 0.007 0.006 0.006 0.007 0.005 0.005 0.006 0.007 0.003 0.005 0.004 0.005 0.004 0.003 0.004 9.3e-4 0.005 9.3e-4 0.002 l 0.15799,-0.0158 0.28998,-0.0298 0.13012,-0.0132 0.14498,-0.0306 0.11711,-0.0298 0.13196,-0.0419 0.0539,-0.0306 0.0585,-0.0132 0.0613,-0.0298 0.0548,-0.0158 0.0595,-0.0287 0.0446,-0.0287 0.0558,-0.0287 0.0456,-0.0306 0.0567,-0.0287 0.0855,-0.0585 0.0446,-0.0437 0.0456,-0.0287 0.0874,-0.0882 0.04,-0.0298 0.0465,-0.0419 0.0288,-0.0456 0.0418,-0.0427 0.0586,-0.0875 0.0446,-0.0445 0.0279,-0.0596 0.0307,-0.0427 0.027,-0.0595 0.0279,-0.0427 0.0166,-0.0585 0.0279,-0.0585 0.0883,-0.23316 0.0418,-0.13199 0.0595,-0.26293 0.0129,-0.14596 0.0297,-0.14595 v -0.16071 l 0.0148,-0.16071 v -0.32252 l -0.0148,-0.15887 v -0.1607 l -0.0297,-0.14596 -0.0129,-0.14595 -0.0279,-0.13094 -0.0316,-0.13278 -0.0418,-0.13094 -0.0883,-0.23422 -0.0279,-0.0585 -0.0166,-0.0437 -0.0279,-0.0585 -0.0269,-0.0437 -0.0307,-0.0585 -0.0279,-0.0445 -0.0446,-0.0577 -0.0586,-0.0883 -0.0418,-0.0427 -0.0288,-0.0445 -0.0465,-0.0279 -0.0864,-0.0893 -0.0409,-0.0287 -0.0456,-0.0437 -0.0855,-0.0585 -0.0446,-0.0437 -0.0567,-0.0298 -0.0455,-0.0287 -0.0558,-0.0287 -0.0446,-0.0298 -0.0595,-0.0158 -0.0548,-0.0287 -0.0613,-0.0132 -0.0585,-0.0306 -0.0539,-0.0132 -0.13197,-0.0445 -0.1171,-0.0287 -0.14498,-0.0287 z m -0.0576,0.90619 0.0576,0.0298 0.0725,0.0279 0.0576,0.0298 0.0595,0.0445 0.0418,0.0279 0.11711,0.0893 0.0437,0.0577 0.0418,0.0419 0.0456,0.0603 0.0288,0.0603 0.0446,0.0566 0.0836,0.21841 0.0307,0.0725 0.0307,0.0893 0.0121,0.0735 0.0166,0.0875 0.0129,0.10222 0.0129,0.0875 v 0.10222 l 0.0158,0.10222 v 0.43776 l -0.0158,0.10222 v 0.10222 l -0.0129,0.0875 -0.0129,0.10222 -0.0166,0.0875 -0.0121,0.0735 -0.0307,0.0875 -0.11431,0.29276 -0.0446,0.0577 -0.0288,0.0603 -0.0874,0.11513 -0.0437,0.0445 -0.11711,0.0875 -0.0418,0.0287 -0.0595,0.0437 -0.0576,0.0298 -0.0725,0.0298 -0.0576,0.0287 -0.0725,0.0132 -0.0743,0.0298 h -0.0855 l -0.14222,0.0298 h -0.35131 l -0.0846,-0.0158 -0.0743,-0.0132 h -0.0725 l -0.0725,-0.0298 -0.0734,-0.0132 -0.0716,-0.0287 -0.0585,-0.0298 -0.0725,-0.0298 -0.0446,-0.0437 -0.0567,-0.0287 -0.0558,-0.0437 -0.0437,-0.0437 -0.0456,-0.0585 -0.0428,-0.0437 -0.0874,-0.11803 -0.0288,-0.0735 -0.0297,-0.0566 -0.0567,-0.14674 -0.0307,-0.0864 -0.0297,-0.0893 -0.0269,-0.17467 -0.0148,-0.0875 -0.014,-0.10327 -0.0166,-0.10222 v -0.64223 l 0.0166,-0.10222 0.014,-0.0875 0.0279,-0.17573 0.0307,-0.0882 0.0129,-0.0725 0.0307,-0.0725 0.0567,-0.14674 0.0297,-0.0577 0.0428,-0.0566 0.0307,-0.0603 0.0855,-0.11803 0.0456,-0.0419 0.11524,-0.0893 0.0558,-0.0279 0.0586,-0.0445 0.11619,-0.0577 0.0725,-0.0298 0.0586,-0.0158 0.14498,-0.0279 0.0874,-0.0158 0.0715,-0.0158 h 0.17473 0.17659 l 0.14221,0.0298 0.0855,0.0132 z m -2.88863,-3.31059 h 2.10978 v -0.87178 h -1.92111 l -0.0725,-0.0158 h -0.0716 l -0.0725,-0.0158 -0.0567,-0.0132 -0.0734,-0.0158 -0.17472,-0.0437 -0.0428,-0.0287 -0.0576,-0.0287 -0.0288,-0.0298 -0.13197,-0.0875 -0.14218,-0.21762 -0.0298,-0.0585 -0.0158,-0.0577 -0.0147,-0.0603 -0.0279,-0.0577 v -0.0577 l -0.0148,-0.0725 -0.0129,-0.0603 -0.0158,-0.0706 v -0.23237 h 2.97785 v -0.88945 h -2.97785 l 0.0158,-0.0735 v -0.0585 l 0.0129,-0.0717 v -0.0743 l 0.0148,-0.0577 0.014,-0.0577 0.014,-0.0585 0.0307,-0.0585 0.0147,-0.0585 0.0279,-0.0437 0.0297,-0.0577 0.11432,-0.17468 0.0437,-0.0287 0.0734,-0.0743 0.0864,-0.0585 0.0576,-0.0279 0.0437,-0.0158 0.0585,-0.0298 0.0409,-0.0132 0.17472,-0.0437 h 0.0716 l 0.0604,-0.0132 0.0716,-0.0158 h 0.14406 1.76218 v -0.87364 h -1.93598 l -0.43311,0.0437 -0.13104,0.0132 -0.11431,0.0308 -0.13105,0.0287 -0.11523,0.0427 -0.1013,0.0437 -0.11619,0.0437 -0.0586,0.0298 -0.0883,0.0577 -0.0558,0.0306 -0.1738,0.11539 -0.22863,0.23316 -0.0902,0.13199 -0.0437,0.0577 -0.0288,0.0437 -0.0129,0.0437 -0.0576,0.11697 -0.0437,0.10222 -0.0883,0.23237 -0.0288,0.13094 -0.0437,0.13094 -0.0129,0.13199 -0.0288,0.14411 -0.0148,0.14675 -0.0129,0.15992 v 0.48144 l 0.0129,0.17388 v 0.0725 l 0.0148,0.0743 v 0.0856 l 0.0129,0.0735 0.0288,0.14595 0.0166,0.0577 0.014,0.0725 0.0288,0.0743 0.0129,0.0585 0.0307,0.0735 0.0129,0.0585 0.17381,0.34944 0.0437,0.0419 0.0297,0.0596 0.0883,0.0864 0.0279,0.0427 0.0418,0.0595 0.0874,0.0875 0.0576,0.0287 0.0437,0.0437 0.0734,0.0585 0.0855,0.0566 0.0716,0.0445 0.0883,0.0445 0.0716,0.0445 0.0864,0.0279 0.0883,0.0437 0.0846,0.0298 0.0874,0.0132 0.10224,0.0158 0.1013,0.0298 0.11432,0.0132 h 0.11526 z m -3.92585,3.35427 h 1.65157 v -0.87644 h -4.4361 v 0.87644 h 1.6683 v 4.16377 h 1.11623 z m 1.23612,-4.85529 0.0158,-0.11619 v -3.4091 h -1.07255 v 3.17581 l -0.014,0.0893 v 0.0717 l -0.014,0.0725 v 0.0725 l -0.014,0.0743 -0.0147,0.0585 -0.0129,0.0566 -0.0297,0.0603 -0.0158,0.0585 -0.11526,0.17283 -0.0288,0.0437 -0.0269,0.0306 -0.0446,0.0279 -0.0288,0.0298 -0.0437,0.0287 -0.0437,0.0158 -0.0576,0.0279 -0.0446,0.0287 -0.17193,0.0445 -0.0734,0.0132 h -0.0567 l -0.0716,0.0158 h -0.44984 l -0.0725,-0.0158 h -0.0585 l -0.0716,-0.0132 -0.11619,-0.0298 -0.0418,-0.0158 -0.0567,-0.0287 -0.0456,-0.0279 -0.0418,-0.0158 -0.13012,-0.0864 -0.0297,-0.0445 -0.0297,-0.0298 -0.0855,-0.13014 -0.0166,-0.0427 -0.0269,-0.0585 -0.0129,-0.0603 -0.0177,-0.0566 -0.0279,-0.0585 v -0.0743 l -0.0279,-0.1449 v -0.0717 l -0.0158,-0.0893 v -3.17581 h -1.06883 v 3.30777 l 0.014,0.11619 v 0.11803 l 0.0158,0.10143 0.014,0.10143 0.014,0.0735 0.0129,0.0864 0.0148,0.0735 0.0147,0.0725 0.0307,0.0735 0.0846,0.17467 0.0456,0.0577 0.0279,0.0456 0.11432,0.1154 0.0586,0.0445 0.0288,0.0427 0.0595,0.0298 0.0437,0.0287 0.0418,0.0419 0.0576,0.0306 0.0437,0.0287 0.0567,0.0298 0.0446,0.0287 0.11711,0.0603 0.0567,0.0132 0.0567,0.0287 0.11711,0.0287 0.0558,0.0298 0.0734,0.0158 0.0595,0.0132 0.14314,0.0298 h 0.0716 l 0.14593,0.0279 h 0.15895 l 0.16078,0.0158 h 0.32995 l 0.15986,-0.0158 h 0.15894 l 0.14686,-0.0279 h 0.0697 l 0.21656,-0.0437 0.0595,-0.0158 0.0558,-0.0298 0.11524,-0.0287 0.0595,-0.0287 0.0558,-0.0132 0.17659,-0.0893 0.0846,-0.0585 0.0604,-0.0306 0.04,-0.0419 0.0456,-0.0287 0.0567,-0.0298 0.0307,-0.0427 0.0418,-0.0445 0.0437,-0.0279 0.0864,-0.0875 0.0298,-0.0595 0.0428,-0.0437 0.0297,-0.0577 0.0269,-0.0585 0.0316,-0.0724 0.0288,-0.0595 0.014,-0.0725 0.014,-0.0875 0.0288,-0.0725 0.0148,-0.10222 0.014,-0.0864 z m -7.56265,1.50102 h 2.61723 v -2.98528 h -2.54474 v 0.90247 h 1.44524 v 1.18033 h -1.28538 l -0.0725,-0.0132 h -0.0743 l -0.14219,-0.0287 -0.0586,-0.0158 -0.0734,-0.0158 -0.0576,-0.0132 -0.0567,-0.0306 -0.0437,-0.0287 -0.0576,-0.0287 -0.0446,-0.0298 -0.0409,-0.0437 -0.0446,-0.0287 -0.0437,-0.0566 -0.0437,-0.0456 -0.0261,-0.0437 -0.0446,-0.0427 -0.0585,-0.11698 -0.0148,-0.0595 -0.0307,-0.0717 -0.0269,-0.0735 -0.0147,-0.0725 -0.0298,-0.14491 -0.0129,-0.0875 v -0.0883 l -0.014,-0.0864 v -0.10328 l -0.0147,-0.10222 v -0.20339 l 0.0147,-0.10143 v -0.10143 l 0.014,-0.10328 v -0.0882 l 0.0428,-0.26109 0.0288,-0.0735 0.0129,-0.0717 0.0307,-0.0735 0.0288,-0.0735 0.014,-0.0577 0.0446,-0.0585 0.0567,-0.11618 0.17288,-0.17573 0.0446,-0.0279 0.0576,-0.0445 0.0437,-0.0287 0.0567,-0.0298 0.0744,-0.0132 0.0567,-0.0298 0.0586,-0.0132 0.14219,-0.0298 h 2.53173 v -0.87365 h -2.45738 l -0.43496,0.0437 -0.1292,0.0132 -0.13012,0.0308 -0.11339,0.0427 -0.11803,0.0287 -0.11526,0.0437 -0.1013,0.0445 -0.0437,0.0287 -0.0567,0.0287 -0.0455,0.0287 -0.0576,0.0306 -0.1292,0.0864 -0.0428,0.0445 -0.0874,0.0566 -0.0297,0.0437 -0.0418,0.0445 -0.0288,0.0445 -0.0456,0.0279 -0.0576,0.0875 -0.0279,0.0577 -0.0418,0.0445 -0.0316,0.0437 -0.0148,0.0585 -0.11431,0.20444 -0.0437,0.11618 -0.0288,0.11619 -0.0446,0.13094 -0.0558,0.26293 -0.0169,0.14305 -0.0129,0.1478 -0.014,0.15992 v 0.65524 l 0.014,0.0725 v 0.0743 l 0.0129,0.0856 0.0169,0.0735 0.0279,0.14595 0.0158,0.0577 0.0121,0.0725 0.0147,0.0743 0.0298,0.0585 0.0288,0.0735 0.014,0.0585 0.1738,0.34945 0.0307,0.0419 0.0428,0.0595 0.0428,0.0427 0.0279,0.0437 0.0456,0.0427 0.0437,0.0596 0.0864,0.0875 0.0428,0.0287 0.0576,0.0437 0.14406,0.11513 0.0883,0.0445 0.0706,0.0445 0.0855,0.0445 0.0883,0.0279 0.0725,0.0298 0.17193,0.0577 0.10409,0.0158 0.11524,0.0287 0.11523,0.0158 h 0.13012 z m -2.02613,2.92953 -0.10409,-0.10143 -0.0567,-0.0298 -0.11526,-0.0864 -0.0743,-0.0445 -0.14314,-0.0585 -0.0883,-0.0279 -0.0725,-0.0158 -0.0995,-0.0287 -0.17472,-0.0306 -0.20355,-0.0279 h -0.21656 l -0.11711,-0.0158 h -2.65441 v 5.0551 h 1.0744 v -1.98894 h 1.27702 l 1.12924,1.98894 h 1.22033 l -1.29282,-2.11906 0.0725,-0.0158 0.17473,-0.0437 0.0446,-0.0287 0.0558,-0.0298 0.0446,-0.0132 0.0576,-0.0287 0.0855,-0.0595 0.0911,-0.0883 0.0418,-0.0279 0.0437,-0.0445 0.0864,-0.13015 0.0446,-0.0445 0.025,-0.0577 0.0158,-0.0445 0.0297,-0.0595 0.0158,-0.0577 0.0298,-0.0577 0.0279,-0.11698 0.0129,-0.0585 0.0147,-0.0596 0.0158,-0.0717 v -0.13278 l 0.0148,-0.0725 v -0.16071 l -0.0148,-0.10222 v -0.0883 l -0.0158,-0.0864 -0.0147,-0.0735 -0.0129,-0.0875 -0.0874,-0.2192 -0.0316,-0.0725 -0.025,-0.0585 z m -0.75376,1.06789 -0.0147,0.0437 v 0.0864 l -0.0158,0.0298 v 0.0437 l -0.0148,0.0287 v 0.0445 l -0.027,0.0577 -0.0158,0.0306 -0.0446,0.0427 -0.0148,0.0298 -0.0269,0.0158 -0.014,0.0298 -0.11803,0.0577 -0.0437,0.0158 -0.0279,0.0158 -0.0874,0.0287 h -0.0428 l -0.20355,0.0287 -0.12919,0.0158 h -1.45083 v -1.27144 h 1.32071 0.14498 l 0.11431,0.0158 h 0.11711 l 0.0864,0.0158 0.13012,0.0445 h 0.0428 l 0.0288,0.0132 0.0446,0.0158 0.0437,0.0437 0.0585,0.0287 0.027,0.0577 0.0307,0.0158 0.014,0.0287 0.0279,0.0577 0.0147,0.0298 0.0148,0.0298 v 0.0437 l 0.0158,0.0298 v 0.11618 z m -1.05303,-3.99742 h 1.12924 v -5.02628 h -1.12924 z m -1.83373,0 h 1.05488 v -5.02628 h -1.57815 l -1.300248,3.86172 -1.300253,-3.86172 H 95.84994 v 5.02628 h 1.099499 l -0.100377,-3.94816 1.343936,3.94816 h 1.142253 l 1.316049,-3.9175 z m -4.624778,2.53637 -0.118028,0.0287 -0.05577,0.0287 -0.04647,0.0287 -0.05577,0.0158 -0.118029,0.0585 -0.08552,0.0585 -0.05762,0.0298 -0.04276,0.0437 -0.08736,0.0585 -0.04276,0.0427 -0.04555,0.0298 -0.04276,0.0445 -0.02974,0.0427 -0.08552,0.0875 -0.05949,0.0883 -0.02787,0.0445 -0.0446,0.0437 -0.02974,0.0577 -0.02695,0.0437 -0.02974,0.0585 -0.02882,0.0445 -0.01475,0.0585 -0.05857,0.11619 -0.01396,0.0585 -0.01581,0.0585 -0.04089,0.11619 -0.02974,0.13199 -0.03067,0.13093 -0.02882,0.14596 -0.01396,0.1478 -0.01475,0.1449 v 9.5e-4 9.2e-4 0.002 0.002 9.2e-4 0.003 0.002 0.003 0.003 0.005 0.003 0.005 0.005 0.005 0.005 0.005 0.005 0.005 0.005 0.005 0.008 0.005 0.008 0.005 0.005 0.008 0.008 0.005 0.003 0.008 0.008 0.005 0.0105 0.008 0.008 0.008 0.008 0.008 0.005 0.008 0.005 0.0105 0.005 0.008 0.005 0.003 0.003 0.005 0.005 0.005 0.005 0.005 0.005 0.005 0.003 0.005 0.003 0.005 0.003 0.003 0.002 0.002 0.002 0.002 9.5e-4 0 9.2e-4 9.2e-4 0.003 0.003 0.002 0.005 0.003 0.003 0.005 0.005 0.005 0.003 0.005 0.003 9.3e-4 0.005 0.005 0.008 0.005 0.005 0.008 0.008 0.005 0.008 0.005 0.008 0.0105 0.005 0.008 0.008 0.008 0.005 0.002 0.008 0.0105 0.005 0.0105 0.005 0.008 0.008 0.005 0.0105 0.005 0.008 0.005 0.008 0.005 0.008 0.005 0.005 0.003 0.003 0.005 0.005 0.003 0.005 0.003 0.003 0.003 0.002 0.002 0.003 9.5e-4 0 l 0.01475,0.14674 0.01396,0.16071 0.02882,0.14596 0.03067,0.13093 0.02974,0.14596 0.02787,0.13199 0.02882,0.0577 0.01396,0.0603 0.03067,0.0577 0.01396,0.0577 0.08736,0.17467 0.02695,0.0445 0.02974,0.0577 0.05949,0.0893 0.02882,0.0577 0.04368,0.0445 0.02608,0.0427 0.04555,0.0456 0.02882,0.0419 0.04555,0.0298 0.08552,0.0882 0.08549,0.0577 0.04368,0.0445 0.0446,0.0287 0.05857,0.0287 0.04181,0.0306 0.117107,0.0577 0.04368,0.0287 0.05949,0.0158 0.05762,0.0298 0.05577,0.0132 0.05949,0.0306 0.05577,0.0132 0.07343,0.0132 0.05854,0.0306 0.07343,0.0132 0.129199,0.0306 0.434967,0.0427 0.158943,0.0158 h 0.0019 v 0 h 0.0029 0.0019 0.0029 0.0019 0.0029 0.0029 0.0047 0.0029 0.0055 0.0074 0.0047 0.0047 9.28e-4 0.0037 0.0066 0.0055 0.0055 0.0066 0.0066 0.0066 0.0066 0.0074 0.0055 0.0092 0.0074 0.0074 0.0066 0.0066 0.0084 0.0074 0.0074 9.28e-4 0.0066 0.0066 0.0084 0.0074 0.0084 0.0084 0.0055 0.0074 0.0066 0.0047 0.0074 0.0055 0.0066 0.0047 0.0074 0.0047 0.0055 0.0055 0.0019 0.0029 0.0055 0.0037 0.0029 0.0029 0.0047 0.0019 0.0029 0.0019 9.3e-4 0.0019 9.3e-4 l 0.157995,-0.0158 0.434967,-0.0427 0.261164,-0.0603 0.116185,-0.0419 0.05949,-0.0306 0.07155,-0.0132 0.04368,-0.0298 0.0567,-0.0158 0.116184,-0.0577 0.04647,-0.0287 0.0567,-0.0306 0.129199,-0.0875 0.06041,-0.0437 0.04089,-0.0287 0.04555,-0.0445 0.02695,-0.0437 0.04555,-0.0298 0.04368,-0.0419 0.02787,-0.0456 0.0446,-0.0427 0.02787,-0.0445 0.04276,-0.0427 0.03067,-0.0445 0.02974,-0.0596 0.02695,-0.0427 0.02882,-0.0595 0.02974,-0.0427 0.03159,-0.0585 0.01212,-0.0585 0.0567,-0.11698 0.03067,-0.11618 0.04276,-0.13199 0.05762,-0.26293 0.03067,-0.14596 0.01396,-0.14595 0.01396,-0.16071 v -0.64223 l -0.01396,-0.16071 -0.01396,-0.14595 -0.03067,-0.14596 -0.02882,-0.13093 -0.02882,-0.13279 -0.04276,-0.13093 -0.03067,-0.11803 -0.0567,-0.11619 -0.01212,-0.0585 -0.03159,-0.0437 -0.02975,-0.0585 -0.02882,-0.0437 -0.02695,-0.0585 -0.02974,-0.0445 -0.03067,-0.0577 -0.04276,-0.0437 -0.02787,-0.0445 -0.0446,-0.0427 -0.02787,-0.0445 -0.04368,-0.0279 -0.04555,-0.0456 -0.02695,-0.0437 -0.04555,-0.0287 -0.04089,-0.0437 -0.06041,-0.0287 -0.04276,-0.0298 -0.04368,-0.0437 -0.04276,-0.0298 -0.05669,-0.0287 -0.04647,-0.0287 -0.05577,-0.0298 -0.06041,-0.0158 -0.0567,-0.0287 -0.04368,-0.0132 -0.07156,-0.0306 -0.05949,-0.0132 -0.116184,-0.0445 -0.261165,-0.0577 -0.144058,-0.0298 -0.290908,-0.0298 h -9.28e-4 -0.0037 -9.27e-4 -0.0047 -0.0047 -0.0037 -0.0084 -0.0055 -0.0066 -0.0084 -0.0084 -0.0092 -0.0055 -0.0029 -0.01396 -0.0092 -0.01028 -0.01581 -0.0092 -0.01212 -0.01212 -0.01212 -0.01396 -0.0084 -0.0047 -0.01475 -0.01291 -0.01581 -0.01212 -0.01475 -0.01475 -0.01581 -0.01396 -0.01475 -0.01475 -0.01396 -0.01475 -0.01475 -0.01291 -0.01396 -0.01475 -0.0055 -0.0055 -0.01765 -0.01212 -0.01212 -0.01212 -0.01212 -0.01027 -0.01212 -0.01107 -0.01107 -0.0047 -0.0047 -0.0074 -0.01027 -0.0066 -0.0074 -0.0055 -0.0066 -0.0047 -0.0074 -0.0029 -0.0029 -0.0019 -0.0029 l -0.158944,0.0158 -0.144058,0.0132 -0.394073,0.0875 z m -0.02882,1.30026 0.173802,-0.23526 0.08644,-0.0864 0.05857,-0.0445 0.05762,-0.0279 0.05857,-0.0445 0.116185,-0.0577 0.07343,-0.0298 0.288119,-0.0585 0.08736,-0.0158 h 0.158943 0.173802 l 0.07343,0.0158 0.08552,0.0158 0.218405,0.0437 0.05762,0.0298 0.0725,0.0279 0.05762,0.0298 0.05949,0.0445 0.05762,0.0279 0.0446,0.0445 0.05483,0.0445 0.04647,0.0577 0.04184,0.0419 0.08644,0.12092 0.02882,0.0566 0.05949,0.1449 0.04276,0.0735 0.01475,0.0725 0.02882,0.0893 0.01686,0.0735 0.01212,0.0875 0.01475,0.10222 0.01291,0.0875 0.01396,0.10222 v 0.10222 l 0.0166,0.10222 v 0.23237 l -0.0166,0.10327 v 0.10222 l -0.01396,0.10222 -0.01291,0.0875 -0.01475,0.10222 -0.01212,0.0875 -0.01686,0.0735 -0.02882,0.0875 -0.01475,0.0735 -0.04276,0.0735 -0.05949,0.14596 -0.02882,0.0577 -0.128251,0.17573 -0.04647,0.0445 -0.05483,0.0437 -0.0446,0.0437 -0.05762,0.0287 -0.05949,0.0437 -0.05762,0.0298 -0.0725,0.0298 -0.05762,0.0287 -0.0725,0.0132 -0.0725,0.0298 h -0.07343 l -0.08552,0.0132 -0.07343,0.0158 h -0.348532 l -0.07155,-0.0158 -0.09015,-0.0132 h -0.06879 l -0.07435,-0.0298 -0.07156,-0.0132 -0.07343,-0.0287 -0.113392,-0.0595 -0.05949,-0.0437 -0.05762,-0.0287 -0.04368,-0.0437 -0.05857,-0.0437 -0.0446,-0.0585 -0.04276,-0.0437 -0.08549,-0.11803 -0.02882,-0.0735 -0.03067,-0.0566 -0.05854,-0.14675 -0.02882,-0.0864 -0.01475,-0.0893 -0.02608,-0.0875 -0.01765,-0.0875 -0.01475,-0.0875 -0.01396,-0.10327 v -0.10222 l -0.01291,-0.10222 v -0.43776 l 0.01291,-0.10222 0.01396,-0.10223 v -0.0875 l 0.03254,-0.17573 0.02608,-0.0883 0.01475,-0.0725 0.02882,-0.0725 0.05854,-0.14674 z m -1.756594,0.39313 0.01686,-0.11618 -0.01686,-0.11619 v -0.10327 l -0.01475,-0.11434 -0.02787,-0.10407 -0.01396,-0.10222 -0.02882,-0.0882 -0.0446,-0.10223 -0.04276,-0.0882 -0.01475,-0.0427 -0.08549,-0.13094 -0.03067,-0.0298 -0.02882,-0.0445 -0.02882,-0.0287 -0.05854,-0.0875 -0.04368,-0.0298 -0.02882,-0.0287 -0.0446,-0.0287 -0.07063,-0.0743 -0.144981,-0.0725 -0.05949,-0.0427 -0.05762,-0.0158 -0.14498,-0.0577 -0.0725,-0.0158 -0.261165,-0.0445 -0.100377,-0.0158 -0.116184,-0.0132 -0.10317,-0.0132 h -0.389423 l -0.145928,-0.0158 h -2.337481 v 5.0551 h 1.074404 v -1.76869 h 1.624621 l 0.14685,-0.0132 h 0.130122 l 0.116184,-0.0158 0.202624,-0.0287 0.08736,-0.0158 0.07155,-0.0298 0.08736,-0.0132 0.290906,-0.11803 0.05577,-0.0437 0.07343,-0.0437 0.07342,-0.0585 0.0567,-0.0585 0.07435,-0.0595 0.05762,-0.0725 0.05762,-0.0577 0.08736,-0.14596 0.04276,-0.0875 0.02882,-0.0893 0.03067,-0.0724 0.02787,-0.10143 0.01581,-0.0883 0.02695,-0.20549 z m -1.187793,-0.0287 -0.01475,0.0437 v 0.0456 l -0.01291,0.0419 v 0.0456 l -0.03067,0.0577 -0.01396,0.0445 -0.01475,0.0287 -0.02787,0.0287 -0.01686,0.0298 -0.100377,0.10222 -0.04276,0.0287 -0.02695,0.0132 -0.03254,0.0298 -0.08736,0.0298 -0.02974,0.0158 -0.129199,0.0419 h -0.0567 l -0.04555,0.0158 h -0.05762 l -0.100377,0.0158 h -1.437808 v -1.48984 h 1.248207 0.131043 l 0.131043,0.0158 h 0.05857 l 0.05577,0.0158 h 0.06041 l 0.08644,0.0287 0.05577,0.0158 H 92.56 l 0.03067,0.0287 0.08736,0.0279 0.02882,0.0158 0.02882,0.0287 0.02787,0.0158 0.02974,0.0279 0.01396,0.0298 0.02882,0.0132 0.01686,0.0287 0.02787,0.0437 0.01475,0.0298 0.01396,0.0298 0.01581,0.0437 0.01475,0.0298 v 0.0427 l 0.01291,0.0445 v 0.0437 l 0.01475,0.0445 z m -1.194302,-4.20098 h 1.24449 v -5.02627 h -1.101359 l 0.05949,3.61449 -2.097694,-3.61449 h -1.358806 v 5.02627 h 1.098569 l -0.0446,-3.8013 z m -3.172095,3.16467 -0.173802,-0.235 -0.100377,-0.10143 -0.04184,-0.0298 -0.0753,-0.0437 -0.0567,-0.0427 -0.0725,-0.0445 -0.05857,-0.0287 -0.08644,-0.0298 -0.07343,-0.0279 -0.08549,-0.0158 -0.08923,-0.0287 -0.08644,-0.0158 -0.30392,-0.0427 h -0.215613 l -0.102248,-0.0158 h -2.669281 v 5.05509 h 1.087417 v -1.98894 h 1.261217 l 1.132028,1.98894 h 1.220325 l -1.277949,-2.11906 0.233291,-0.0585 0.05577,-0.0287 0.04368,-0.0298 0.05762,-0.0132 0.08644,-0.0585 0.06041,-0.0298 0.157072,-0.16071 0.02882,-0.0427 0.0446,-0.0437 0.05949,-0.0883 0.02608,-0.0577 0.03159,-0.0445 0.01212,-0.0595 0.02974,-0.0577 0.01396,-0.0577 0.02975,-0.0585 0.01396,-0.0585 0.01475,-0.0585 v -0.0595 l 0.01475,-0.0717 0.01475,-0.0595 v -0.40897 l -0.02974,-0.17467 -0.01475,-0.0735 -0.01396,-0.0875 -0.02974,-0.0735 -0.01396,-0.0725 z m -0.926629,0.92012 -0.01475,0.0427 v 0.0735 l -0.01396,0.0287 -0.01396,0.0445 -0.03067,0.0577 -0.01396,0.0306 -0.01475,0.0158 -0.01396,0.0279 -0.03067,0.0298 -0.01212,0.0158 -0.03067,0.0298 -0.144981,0.0725 -0.04276,0.0158 -0.02974,0.0158 -0.0567,0.0132 h -0.04368 l -0.202624,0.0287 -0.117107,0.0158 h -1.449888 v -1.27144 h 1.31977 0.130121 l 0.117106,0.0158 h 0.117107 l 0.100377,0.0158 0.131043,0.0445 h 0.02695 l 0.0446,0.0132 0.02974,0.0158 0.02787,0.0279 0.05762,0.0298 0.04368,0.0445 0.01475,0.0279 0.01396,0.0158 0.01475,0.0287 0.03067,0.0577 0.01396,0.0298 0.01396,0.0298 0.01396,0.0437 v 0.0725 l 0.01475,0.0437 z m -0.57066,-4.08479 h 1.198015 L 86.119906,147.69 h -1.143183 l -2.170186,5.02628 h 1.144113 l 0.462848,-1.19338 h 2.210153 z m -0.827183,-2.08188 H 84.7611 l 0.736097,-1.93783 z m -3.41746,4.83666 -0.05762,-0.0298 -0.04089,-0.0287 -0.06041,-0.0287 -0.0446,-0.0298 -0.0567,-0.0158 -0.05577,-0.0287 -0.05949,-0.0132 -0.05762,-0.0306 -0.06041,-0.0132 -0.130121,-0.0445 -0.390356,-0.0875 -0.14498,-0.0132 -0.16171,-0.0158 h -0.621807 l -0.288119,0.0298 -0.146851,0.0298 -0.261164,0.0577 -0.115236,0.0445 -0.116184,0.0287 -0.117107,0.0577 -0.05762,0.0158 -0.05483,0.0298 -0.09015,0.0577 -0.05762,0.0298 -0.0446,0.0298 -0.04089,0.0437 -0.06041,0.0287 -0.04368,0.0298 -0.158943,0.15992 -0.02975,0.0445 -0.04184,0.0427 -0.02882,0.0445 -0.04368,0.0437 -0.05854,0.0883 -0.02974,0.0577 -0.02882,0.0437 -0.02974,0.0585 -0.02882,0.0445 -0.02695,0.0585 -0.0166,0.0577 -0.05762,0.11697 -0.01291,0.0585 -0.04276,0.11618 -0.02975,0.13199 -0.02974,0.13094 -0.01581,0.14596 -0.01475,0.1478 -0.01212,0.1449 -0.01475,0.16176 v 0.15992 0.15991 l 0.01475,0.17573 0.01212,0.14675 0.01475,0.1607 0.01581,0.14596 0.02974,0.13094 0.02975,0.14595 0.04276,0.13199 0.01291,0.0577 0.02882,0.0603 0.01475,0.0577 0.05762,0.11618 0.01581,0.0585 0.02974,0.0577 0.02787,0.0445 0.02787,0.0577 0.02974,0.0445 0.0446,0.0445 0.02695,0.0577 0.02974,0.0445 0.04368,0.0427 0.02974,0.0456 0.04276,0.0419 0.0446,0.0298 0.02882,0.0437 0.0446,0.0445 0.08552,0.0577 0.05857,0.0445 0.08736,0.0577 0.05762,0.0306 0.04276,0.0287 0.117107,0.0577 0.05577,0.0158 0.05949,0.0298 0.0567,0.0132 0.05762,0.0306 0.117106,0.0269 0.0725,0.0306 0.05857,0.0132 0.14498,0.0306 0.132914,0.0132 0.142187,0.0158 0.159866,0.0132 0.145928,0.0158 h 0.332733 l 0.143136,-0.0158 0.161709,-0.0132 0.14498,-0.0158 0.130122,-0.0132 0.260242,-0.0603 0.130121,-0.0419 0.06041,-0.0306 0.05762,-0.0132 0.05949,-0.0298 0.05577,-0.0158 0.0567,-0.0287 0.0446,-0.0287 0.06041,-0.0287 0.04089,-0.0306 0.05762,-0.0287 0.08923,-0.0585 0.04368,-0.0437 0.04181,-0.0287 0.08644,-0.0883 0.0446,-0.0298 0.03067,-0.0419 0.04089,-0.0456 0.02975,-0.0427 0.04184,-0.0445 0.06041,-0.0875 0.04181,-0.0595 0.02974,-0.0427 0.02882,-0.0595 0.01475,-0.0427 0.05857,-0.11698 0.04089,-0.11697 0.04555,-0.11619 0.0446,-0.13199 0.0567,-0.26293 0.01475,-0.14595 0.01475,-0.14596 0.02882,-0.32157 v -0.32253 l -0.01396,-0.15886 -0.01475,-0.16071 -0.01475,-0.14595 -0.01475,-0.14596 -0.02882,-0.13094 -0.02787,-0.13278 -0.0446,-0.13094 -0.08644,-0.23421 -0.03159,-0.0585 -0.02695,-0.0437 -0.01475,-0.0585 -0.02882,-0.0437 -0.02974,-0.0585 -0.04181,-0.0445 -0.03067,-0.0577 -0.02974,-0.0437 -0.04184,-0.0445 -0.02974,-0.0427 -0.158943,-0.16176 -0.04368,-0.0287 -0.04181,-0.0437 -0.08923,-0.0585 z m -0.245358,2.4546 -0.01475,0.10222 v 0.10222 l -0.01581,0.0875 -0.01291,0.10222 -0.01475,0.0875 -0.02975,0.0735 -0.01396,0.0875 -0.118028,0.29276 -0.08457,0.11802 -0.02974,0.0577 -0.04368,0.0577 -0.05762,0.0445 -0.04555,0.0437 -0.05577,0.0437 -0.04368,0.0287 -0.05762,0.0437 -0.0725,0.0298 -0.05762,0.0298 -0.07343,0.0287 -0.0567,0.0132 -0.0725,0.0298 h -0.08828 l -0.07063,0.0132 -0.08828,0.0158 h -0.33277 l -0.08736,-0.0158 -0.0725,-0.0132 h -0.08828 l -0.07155,-0.0298 -0.05854,-0.0132 -0.144059,-0.0585 -0.05857,-0.0298 -0.05854,-0.0437 -0.04368,-0.0287 -0.05762,-0.0437 -0.101299,-0.10222 -0.02882,-0.0437 -0.08644,-0.11803 -0.03067,-0.0735 -0.04368,-0.0566 -0.02882,-0.0735 -0.01291,-0.0735 -0.0567,-0.17573 -0.03254,-0.17467 -0.01396,-0.0875 -0.01396,-0.10327 -0.01291,-0.10222 V 157.356 l 0.01291,-0.10222 0.01396,-0.0875 0.02882,-0.17573 0.01765,-0.0882 0.02882,-0.0725 0.0567,-0.14596 0.02882,-0.0735 0.02787,-0.0577 0.04555,-0.0566 0.02695,-0.0603 0.08552,-0.11802 0.04555,-0.0419 0.05857,-0.0445 0.04276,-0.0445 0.06041,-0.0279 0.0567,-0.0445 0.07063,-0.0298 0.117106,-0.0577 0.218406,-0.0437 0.08736,-0.0158 0.0725,-0.0158 h 0.171932 0.160787 l 0.08828,0.0158 0.07063,0.0158 0.08828,0.0132 0.0725,0.0158 0.0567,0.0158 0.07343,0.0298 0.05762,0.0279 0.0725,0.0298 0.05762,0.0445 0.04368,0.0279 0.05577,0.0445 0.146851,0.14411 0.02974,0.0603 0.08457,0.11697 0.118029,0.29091 0.01396,0.0893 0.02974,0.0735 0.01475,0.0875 0.01291,0.10222 0.01581,0.0875 v 0.10223 l 0.01475,0.10222 z m 0.135707,-6.43247 0.01475,-0.0875 v -0.37919 l -0.01475,-0.0875 v -0.0735 l -0.01475,-0.0856 -0.01396,-0.0743 -0.02974,-0.0717 -0.01475,-0.0735 -0.02787,-0.0725 -0.08549,-0.17572 -0.0446,-0.0577 -0.0446,-0.0437 -0.02695,-0.0427 -0.05854,-0.0456 -0.04276,-0.0437 -0.05762,-0.0279 -0.05857,-0.0437 -0.115236,-0.0577 -0.145929,-0.0595 -0.07156,-0.0158 -0.08644,-0.0132 -0.08736,-0.0298 h -0.08828 l -0.08552,-0.0132 -0.100377,-0.0158 h -0.101299 l -0.101299,-0.0158 h -1.692466 l -0.14498,-0.0287 -0.05762,-0.0158 -0.05762,-0.0287 -0.01396,-0.0158 -0.05762,-0.0287 -0.02882,-0.0287 -0.02882,-0.0132 -0.01396,-0.0298 -0.01475,-0.0132 -0.01475,-0.0298 -0.01396,-0.0158 -0.01475,-0.0279 -0.01581,-0.0298 -0.01212,-0.0445 -0.0166,-0.0566 -0.01291,-0.0735 V 149.16 l 0.01291,-0.0437 v -0.0725 l 0.0166,-0.0298 0.01212,-0.0287 0.01581,-0.0445 v -0.0279 l 0.01475,-0.0287 0.04368,-0.0437 0.01396,-0.0298 0.04181,-0.0445 0.03067,-0.0132 0.02787,-0.0306 0.144058,-0.0725 0.08736,-0.0287 0.0725,-0.0158 0.101299,-0.0132 h 2.848661 v -0.90432 h -3.036402 l -0.10317,0.0158 -0.114314,0.0158 -0.100377,0.0132 -0.174724,0.0287 -0.100377,0.0158 -0.07155,0.0287 -0.08644,0.0298 -0.146851,0.0566 -0.07063,0.0445 -0.06041,0.0427 -0.0567,0.0298 -0.05762,0.0445 -0.100377,0.10144 -0.130121,0.17467 -0.03067,0.0725 -0.02787,0.0577 -0.05762,0.14491 -0.01396,0.0893 -0.02974,0.0717 -0.02882,0.17467 v 0.19048 l -0.01396,0.10222 0.01396,0.0875 v 0.17467 l 0.01475,0.0875 0.02882,0.14595 0.05762,0.1449 0.01581,0.0743 0.02787,0.0577 0.04368,0.0717 0.02882,0.0437 0.08644,0.11697 0.04368,0.0445 0.0567,0.0427 0.04368,0.0456 0.05762,0.0419 0.05854,0.0287 0.07343,0.0287 0.07343,0.0445 0.06971,0.0298 0.07343,0.0132 0.07155,0.0287 0.08828,0.0158 0.08644,0.0287 0.08644,0.0132 h 0.08644 l 0.201676,0.0306 h 1.592089 l 0.08552,0.0132 h 0.08828 l 0.07063,0.0132 0.07155,0.0298 0.0725,0.0158 0.02974,0.0132 0.01475,0.0158 0.0567,0.0287 0.01475,0.0132 0.01396,0.0298 0.02882,0.0132 0.01475,0.0158 0.01581,0.0287 0.01396,0.0287 0.01396,0.0158 0.01475,0.0298 v 0.0287 l 0.01396,0.0306 v 0.0419 l 0.01291,0.0287 v 0.0725 l 0.01581,0.0735 -0.01581,0.0735 v 0.0725 l -0.01291,0.0298 v 0.0279 l -0.01396,0.0298 -0.01475,0.0298 -0.01396,0.0287 -0.01396,0.0132 -0.01581,0.0287 -0.01475,0.0158 -0.01291,0.0298 -0.05949,0.0577 -0.114313,0.0585 -0.07343,0.0158 -0.07156,0.0287 h -0.08644 l -0.08644,0.0132 -0.115236,0.0158 h -2.805907 v 0.88666 h 3.094026 l 0.100377,-0.0132 h 0.102221 l 0.202625,-0.0298 0.08644,-0.0158 0.173802,-0.0585 0.07156,-0.0132 0.0725,-0.0445 0.145928,-0.0577 0.114314,-0.0893 0.07343,-0.0419 0.04276,-0.0437 0.05854,-0.0445 0.08552,-0.11618 0.03067,-0.0577 0.04276,-0.0585 0.05483,-0.14595 0.03067,-0.0725 0.02974,-0.14596 z m -4.179585,3.68604 h -1.79937 l -0.161709,0.0158 h -0.143136 l -0.131043,0.0158 -0.145929,0.0132 -0.260242,0.0595 -0.232343,0.0577 -0.116184,0.0445 -0.101299,0.0577 -0.05762,0.0158 -0.04555,0.0287 -0.05483,0.0298 -0.174724,0.11802 -0.04368,0.0437 -0.0446,0.0287 -0.04276,0.0437 -0.04368,0.0298 -0.03159,0.0437 -0.03997,0.0419 -0.03067,0.0456 -0.02974,0.0287 -0.04089,0.0577 -0.08828,0.132 -0.02974,0.0595 -0.05762,0.10222 -0.04368,0.10222 -0.04184,0.11618 -0.0446,0.13094 -0.02787,0.11803 -0.03067,0.13015 -0.02695,0.14674 -0.01686,0.13199 -0.01396,0.16071 -0.01475,0.1449 -0.01396,0.16177 v 0.33459 l 0.01396,0.16255 0.01475,0.0725 v 0.0875 l 0.03067,0.14595 v 0.0735 l 0.02695,0.0725 0.01581,0.0743 0.01475,0.0717 0.01291,0.0595 0.03067,0.0725 0.01212,0.0585 0.03067,0.0585 0.02787,0.0725 0.02882,0.0585 0.01475,0.0585 0.04368,0.0585 0.02974,0.0427 0.02882,0.0595 0.02882,0.0585 0.0446,0.0445 0.04089,0.0577 0.02974,0.0437 0.217483,0.21946 0.05949,0.0298 0.144059,0.11513 0.08549,0.0456 0.07435,0.0585 0.08736,0.0287 0.08552,0.0427 0.07343,0.0287 0.08644,0.0298 0.101299,0.0158 0.08736,0.0306 0.34853,0.0419 h 0.131043 l 0.143136,0.0158 h 1.975937 v -0.87644 h -1.859761 l -0.08552,-0.0158 h -0.08644 l -0.14498,-0.0298 -0.05857,-0.0158 -0.07343,-0.0158 -0.05857,-0.0158 -0.05762,-0.0279 -0.05854,-0.0158 -0.115236,-0.0585 -0.04276,-0.0445 -0.0446,-0.0287 -0.04276,-0.0437 -0.08644,-0.13094 -0.0446,-0.0585 -0.02974,-0.0437 -0.01212,-0.0735 -0.02787,-0.0585 -0.01765,-0.0595 -0.02787,-0.0706 -0.01475,-0.0735 -0.01291,-0.0883 -0.01581,-0.0735 v -0.0875 l -0.01396,-0.10143 v -0.62827 l 0.01396,-0.10406 v -0.10038 l 0.01581,-0.10327 0.01291,-0.0875 0.02882,-0.0875 0.01396,-0.0875 0.03067,-0.0743 0.01475,-0.0725 0.02787,-0.0724 0.02882,-0.0743 0.05762,-0.11618 0.0446,-0.0585 0.04276,-0.0445 0.02974,-0.0577 0.04184,-0.0445 0.05949,-0.0279 0.04368,-0.0445 0.289979,-0.14596 0.217483,-0.0437 h 0.157995 l 0.08828,-0.0158 h 1.771466 z m 28.63624,0 -2.17484,5.0551 h 1.14597 l 0.46564,-1.19801 h 2.21852 l 0.47679,1.19801 h 1.20359 l -2.18877,-5.0551 z m -0.21841,2.9509 0.73982,-1.94246 0.78628,1.94246 z m 8.8908,-2.9509 h -1.13018 v 5.0551 h 1.13018 z"
       style="display:inline;fill:#30302c;fill-opacity:1;fill-rule:nonzero;stroke:none;stroke-width:0.929417" />
  </g>
</svg>
